<svg width="25" height="24" viewBox="0 0 25 24" fill="none" xmlns="http://www.w3.org/2000/svg">
<path d="M16.4986 2H8.11859C4.47859 2 2.30859 4.17 2.30859 7.81V16.18C2.30859 19.83 4.47859 22 8.11859 22H16.4886C20.1286 22 22.2986 19.83 22.2986 16.19V7.81C22.3086 4.17 20.1386 2 16.4986 2ZM18.3086 12.75H13.0586V18C13.0586 18.41 12.7186 18.75 12.3086 18.75C11.8986 18.75 11.5586 18.41 11.5586 18V12.75H6.30859C5.89859 12.75 5.55859 12.41 5.55859 12C5.55859 11.59 5.89859 11.25 6.30859 11.25H11.5586V6C11.5586 5.59 11.8986 5.25 12.3086 5.25C12.7186 5.25 13.0586 5.59 13.0586 6V11.25H18.3086C18.7186 11.25 19.0586 11.59 19.0586 12C19.0586 12.41 18.7186 12.75 18.3086 12.75Z" fill="#5B52B6"/>
</svg>
