<svg width="40" height="40" viewBox="0 0 40 40" fill="none" xmlns="http://www.w3.org/2000/svg">
<rect x="0.155405" y="0.155405" width="39.6892" height="39.6892" rx="19.8446" stroke="#83838A" stroke-width="0.310811"/>
<path d="M32.1587 10.0312H7.8457C6.8792 10.0312 6.0957 10.8148 6.0957 11.7812V28.2192C6.0957 29.1857 6.8792 29.9692 7.8457 29.9692H32.1587C33.1252 29.9692 33.9087 29.1857 33.9087 28.2192V11.7812C33.9087 10.8148 33.1252 10.0312 32.1587 10.0312Z" fill="url(#paint0_linear_3472_68707)"/>
<path d="M32.1587 10.0312H7.8457C6.8792 10.0312 6.0957 10.8148 6.0957 11.7812V28.2192C6.0957 29.1857 6.8792 29.9692 7.8457 29.9692H32.1587C33.1252 29.9692 33.9087 29.1857 33.9087 28.2192V11.7812C33.9087 10.8148 33.1252 10.0312 32.1587 10.0312Z" fill="url(#paint1_linear_3472_68707)"/>
<path d="M20.0017 10.0303V29.9693H7.8457C7.38157 29.9693 6.93645 29.7849 6.60827 29.4567C6.28008 29.1285 6.0957 28.6834 6.0957 28.2193V11.7793C6.0957 10.8133 6.8787 10.0293 7.8457 10.0293L20.0017 10.0303Z" fill="url(#paint2_linear_3472_68707)"/>
<path d="M20.0017 10.0303V29.9693H7.8457C7.38157 29.9693 6.93645 29.7849 6.60827 29.4567C6.28008 29.1285 6.0957 28.6834 6.0957 28.2193V11.7793C6.0957 10.8133 6.8787 10.0293 7.8457 10.0293L20.0017 10.0303Z" fill="url(#paint3_radial_3472_68707)"/>
<path d="M20 10.0303V29.9693H32.156C32.6201 29.9693 33.0652 29.7849 33.3934 29.4567C33.7216 29.1285 33.906 28.6834 33.906 28.2193V11.7793C33.906 11.3152 33.7216 10.87 33.3934 10.5419C33.0652 10.2137 32.6201 10.0293 32.156 10.0293L20 10.0303Z" fill="url(#paint4_linear_3472_68707)"/>
<path d="M20 10.0303V29.9693H32.156C32.6201 29.9693 33.0652 29.7849 33.3934 29.4567C33.7216 29.1285 33.906 28.6834 33.906 28.2193V11.7793C33.906 11.3152 33.7216 10.87 33.3934 10.5419C33.0652 10.2137 32.6201 10.0293 32.156 10.0293L20 10.0303Z" fill="url(#paint5_linear_3472_68707)"/>
<path d="M20 10.0303V29.9693H32.156C32.6201 29.9693 33.0652 29.7849 33.3934 29.4567C33.7216 29.1285 33.906 28.6834 33.906 28.2193V11.7793C33.906 11.3152 33.7216 10.87 33.3934 10.5419C33.0652 10.2137 32.6201 10.0293 32.156 10.0293L20 10.0303Z" fill="url(#paint6_linear_3472_68707)"/>
<path d="M20 10.0303V29.9693H32.156C32.6201 29.9693 33.0652 29.7849 33.3934 29.4567C33.7216 29.1285 33.906 28.6834 33.906 28.2193V11.7793C33.906 11.3152 33.7216 10.87 33.3934 10.5419C33.0652 10.2137 32.6201 10.0293 32.156 10.0293L20 10.0303Z" fill="url(#paint7_linear_3472_68707)"/>
<g filter="url(#filter0_i_3472_68707)">
<path d="M6.09475 28.2184C6.09458 28.0892 6.12736 27.9621 6.19 27.849C6.25264 27.736 6.34308 27.6408 6.45275 27.5724L19.7808 19.2424C19.8443 19.2027 19.9178 19.1816 19.9928 19.1816C20.0677 19.1816 20.1412 19.2027 20.2048 19.2424L33.5777 27.6234C33.7827 27.7514 33.9077 27.9764 33.9077 28.2184C33.9077 28.6826 33.7234 29.1277 33.3952 29.4559C33.067 29.7841 32.6219 29.9684 32.1577 29.9684H7.84375C7.37962 29.9684 6.9345 29.7841 6.60631 29.4559C6.27812 29.1277 6.09375 28.6826 6.09375 28.2184" fill="url(#paint8_linear_3472_68707)"/>
</g>
<path d="M6.09475 28.2184C6.09458 28.0892 6.12736 27.9621 6.19 27.849C6.25264 27.736 6.34308 27.6408 6.45275 27.5724L19.7808 19.2424C19.8443 19.2027 19.9178 19.1816 19.9928 19.1816C20.0677 19.1816 20.1412 19.2027 20.2048 19.2424L33.5777 27.6234C33.7827 27.7514 33.9077 27.9764 33.9077 28.2184C33.9077 28.6826 33.7234 29.1277 33.3952 29.4559C33.067 29.7841 32.6219 29.9684 32.1577 29.9684H7.84375C7.37962 29.9684 6.9345 29.7841 6.60631 29.4559C6.27812 29.1277 6.09375 28.6826 6.09375 28.2184" fill="url(#paint9_linear_3472_68707)"/>
<path d="M6.09475 28.2184C6.09458 28.0892 6.12736 27.9621 6.19 27.849C6.25264 27.736 6.34308 27.6408 6.45275 27.5724L19.7808 19.2424C19.8443 19.2027 19.9178 19.1816 19.9928 19.1816C20.0677 19.1816 20.1412 19.2027 20.2048 19.2424L33.5777 27.6234C33.7827 27.7514 33.9077 27.9764 33.9077 28.2184C33.9077 28.6826 33.7234 29.1277 33.3952 29.4559C33.067 29.7841 32.6219 29.9684 32.1577 29.9684H7.84375C7.37962 29.9684 6.9345 29.7841 6.60631 29.4559C6.27812 29.1277 6.09375 28.6826 6.09375 28.2184" fill="url(#paint10_linear_3472_68707)"/>
<g filter="url(#filter1_ii_3472_68707)">
<path d="M6.09475 11.7812C6.09458 11.9105 6.12736 12.0376 6.19 12.1507C6.25264 12.2637 6.34308 12.3589 6.45275 12.4272L19.7808 20.7572C19.8443 20.797 19.9178 20.8181 19.9928 20.8181C20.0677 20.8181 20.1412 20.797 20.2048 20.7572L33.5777 12.3763C33.6788 12.3133 33.7622 12.2257 33.8199 12.1215C33.8776 12.0174 33.9079 11.9003 33.9077 11.7812C33.9077 11.3171 33.7234 10.872 33.3952 10.5438C33.067 10.2156 32.6219 10.0312 32.1577 10.0312H7.84375C7.37962 10.0312 6.9345 10.2156 6.60631 10.5438C6.27812 10.872 6.09375 11.3171 6.09375 11.7812" fill="url(#paint11_linear_3472_68707)"/>
<path d="M6.09475 11.7812C6.09458 11.9105 6.12736 12.0376 6.19 12.1507C6.25264 12.2637 6.34308 12.3589 6.45275 12.4272L19.7808 20.7572C19.8443 20.797 19.9178 20.8181 19.9928 20.8181C20.0677 20.8181 20.1412 20.797 20.2048 20.7572L33.5777 12.3763C33.6788 12.3133 33.7622 12.2257 33.8199 12.1215C33.8776 12.0174 33.9079 11.9003 33.9077 11.7812C33.9077 11.3171 33.7234 10.872 33.3952 10.5438C33.067 10.2156 32.6219 10.0312 32.1577 10.0312H7.84375C7.37962 10.0312 6.9345 10.2156 6.60631 10.5438C6.27812 10.872 6.09375 11.3171 6.09375 11.7812" fill="url(#paint12_linear_3472_68707)"/>
<path d="M6.09475 11.7812C6.09458 11.9105 6.12736 12.0376 6.19 12.1507C6.25264 12.2637 6.34308 12.3589 6.45275 12.4272L19.7808 20.7572C19.8443 20.797 19.9178 20.8181 19.9928 20.8181C20.0677 20.8181 20.1412 20.797 20.2048 20.7572L33.5777 12.3763C33.6788 12.3133 33.7622 12.2257 33.8199 12.1215C33.8776 12.0174 33.9079 11.9003 33.9077 11.7812C33.9077 11.3171 33.7234 10.872 33.3952 10.5438C33.067 10.2156 32.6219 10.0312 32.1577 10.0312H7.84375C7.37962 10.0312 6.9345 10.2156 6.60631 10.5438C6.27812 10.872 6.09375 11.3171 6.09375 11.7812" fill="url(#paint13_linear_3472_68707)"/>
<path d="M6.09475 11.7812C6.09458 11.9105 6.12736 12.0376 6.19 12.1507C6.25264 12.2637 6.34308 12.3589 6.45275 12.4272L19.7808 20.7572C19.8443 20.797 19.9178 20.8181 19.9928 20.8181C20.0677 20.8181 20.1412 20.797 20.2048 20.7572L33.5777 12.3763C33.6788 12.3133 33.7622 12.2257 33.8199 12.1215C33.8776 12.0174 33.9079 11.9003 33.9077 11.7812C33.9077 11.3171 33.7234 10.872 33.3952 10.5438C33.067 10.2156 32.6219 10.0312 32.1577 10.0312H7.84375C7.37962 10.0312 6.9345 10.2156 6.60631 10.5438C6.27812 10.872 6.09375 11.3171 6.09375 11.7812" fill="url(#paint14_radial_3472_68707)"/>
</g>
<g filter="url(#filter2_f_3472_68707)">
<path d="M19.3301 27.4707C21.1866 27.4707 22.9671 26.7332 24.2798 25.4205C25.5926 24.1077 26.3301 22.3272 26.3301 20.4707C26.3301 18.6142 25.5926 16.8337 24.2798 15.521C22.9671 14.2082 21.1866 13.4707 19.3301 13.4707C17.4736 13.4707 15.6931 14.2082 14.3803 15.521C13.0676 16.8337 12.3301 18.6142 12.3301 20.4707C12.3301 22.3272 13.0676 24.1077 14.3803 25.4205C15.6931 26.7332 17.4736 27.4707 19.3301 27.4707Z" fill="#C2A5D0"/>
</g>
<g filter="url(#filter3_iii_3472_68707)">
<path d="M19.9531 27C21.8096 27 23.5901 26.2625 24.9029 24.9497C26.2156 23.637 26.9531 21.8565 26.9531 20C26.9531 18.1435 26.2156 16.363 24.9029 15.0503C23.5901 13.7375 21.8096 13 19.9531 13C18.0966 13 16.3161 13.7375 15.0034 15.0503C13.6906 16.363 12.9531 18.1435 12.9531 20C12.9531 21.8565 13.6906 23.637 15.0034 24.9497C16.3161 26.2625 18.0966 27 19.9531 27Z" fill="url(#paint15_linear_3472_68707)"/>
</g>
<g filter="url(#filter4_dii_3472_68707)">
<path d="M19.9545 15.4987C18.7445 15.4787 17.5945 15.9387 16.7345 16.7987C15.8645 17.6487 15.3945 18.7887 15.3945 19.9987C15.3945 22.4787 17.4145 24.4987 19.8945 24.4987C20.0192 24.4987 20.1387 24.4492 20.2269 24.361C20.315 24.2729 20.3645 24.1533 20.3645 24.0287C20.3645 23.904 20.315 23.7845 20.2269 23.6963C20.1387 23.6082 20.0192 23.5587 19.8945 23.5587C17.9345 23.5587 16.3345 21.9587 16.3345 19.9987C16.3345 19.0387 16.7145 18.1387 17.3945 17.4687C18.0745 16.7987 18.9845 16.4387 19.9445 16.4387C21.8745 16.4687 23.4545 18.0887 23.4545 20.0587V20.8687C23.4545 21.0464 23.3839 21.2168 23.2583 21.3424C23.1326 21.4681 22.9622 21.5387 22.7845 21.5387C22.6068 21.5387 22.4364 21.4681 22.3108 21.3424C22.1851 21.2168 22.1145 21.0464 22.1145 20.8687V17.7887C22.1145 17.664 22.065 17.5445 21.9769 17.4563C21.8887 17.3682 21.7692 17.3187 21.6445 17.3187C21.3845 17.3187 21.1545 17.5287 21.1545 17.7887V17.8787C20.7145 17.5287 20.1645 17.3087 19.5545 17.3087C18.1545 17.3087 17.0145 18.4487 17.0145 19.8487C17.0145 21.2487 18.1545 22.3887 19.5545 22.3887C20.2545 22.3887 20.8945 22.0987 21.3545 21.6387C21.6345 22.1387 22.1645 22.4787 22.7745 22.4787C23.6645 22.4787 24.3945 21.7487 24.3945 20.8587V20.0487C24.3945 17.5787 22.4045 15.5287 19.9545 15.4987ZM19.5645 21.4587C18.6845 21.4587 17.9645 20.7387 17.9645 19.8587C17.9645 18.9787 18.6845 18.2587 19.5645 18.2587C20.4445 18.2587 21.1645 18.9787 21.1645 19.8587C21.1645 20.7387 20.4445 21.4587 19.5645 21.4587Z" fill="#E6E0ED"/>
</g>
<defs>
<filter id="filter0_i_3472_68707" x="6.09375" y="18.4316" width="27.8145" height="11.5371" filterUnits="userSpaceOnUse" color-interpolation-filters="sRGB">
<feFlood flood-opacity="0" result="BackgroundImageFix"/>
<feBlend mode="normal" in="SourceGraphic" in2="BackgroundImageFix" result="shape"/>
<feColorMatrix in="SourceAlpha" type="matrix" values="0 0 0 0 0 0 0 0 0 0 0 0 0 0 0 0 0 0 127 0" result="hardAlpha"/>
<feOffset dy="-0.75"/>
<feGaussianBlur stdDeviation="0.75"/>
<feComposite in2="hardAlpha" operator="arithmetic" k2="-1" k3="1"/>
<feColorMatrix type="matrix" values="0 0 0 0 0.819608 0 0 0 0 0.654902 0 0 0 0 0.933333 0 0 0 1 0"/>
<feBlend mode="normal" in2="shape" result="effect1_innerShadow_3472_68707"/>
</filter>
<filter id="filter1_ii_3472_68707" x="6.09375" y="9.88125" width="27.8145" height="11.1871" filterUnits="userSpaceOnUse" color-interpolation-filters="sRGB">
<feFlood flood-opacity="0" result="BackgroundImageFix"/>
<feBlend mode="normal" in="SourceGraphic" in2="BackgroundImageFix" result="shape"/>
<feColorMatrix in="SourceAlpha" type="matrix" values="0 0 0 0 0 0 0 0 0 0 0 0 0 0 0 0 0 0 127 0" result="hardAlpha"/>
<feOffset dy="-0.15"/>
<feGaussianBlur stdDeviation="0.225"/>
<feComposite in2="hardAlpha" operator="arithmetic" k2="-1" k3="1"/>
<feColorMatrix type="matrix" values="0 0 0 0 0.827451 0 0 0 0 0.686275 0 0 0 0 0.913725 0 0 0 1 0"/>
<feBlend mode="normal" in2="shape" result="effect1_innerShadow_3472_68707"/>
<feColorMatrix in="SourceAlpha" type="matrix" values="0 0 0 0 0 0 0 0 0 0 0 0 0 0 0 0 0 0 127 0" result="hardAlpha"/>
<feOffset dy="0.25"/>
<feGaussianBlur stdDeviation="0.3"/>
<feComposite in2="hardAlpha" operator="arithmetic" k2="-1" k3="1"/>
<feColorMatrix type="matrix" values="0 0 0 0 0.870588 0 0 0 0 0.858824 0 0 0 0 0.854902 0 0 0 1 0"/>
<feBlend mode="normal" in2="effect1_innerShadow_3472_68707" result="effect2_innerShadow_3472_68707"/>
</filter>
<filter id="filter2_f_3472_68707" x="10.8301" y="11.9707" width="17" height="17" filterUnits="userSpaceOnUse" color-interpolation-filters="sRGB">
<feFlood flood-opacity="0" result="BackgroundImageFix"/>
<feBlend mode="normal" in="SourceGraphic" in2="BackgroundImageFix" result="shape"/>
<feGaussianBlur stdDeviation="0.75" result="effect1_foregroundBlur_3472_68707"/>
</filter>
<filter id="filter3_iii_3472_68707" x="12.8031" y="12.75" width="14.4" height="14.5" filterUnits="userSpaceOnUse" color-interpolation-filters="sRGB">
<feFlood flood-opacity="0" result="BackgroundImageFix"/>
<feBlend mode="normal" in="SourceGraphic" in2="BackgroundImageFix" result="shape"/>
<feColorMatrix in="SourceAlpha" type="matrix" values="0 0 0 0 0 0 0 0 0 0 0 0 0 0 0 0 0 0 127 0" result="hardAlpha"/>
<feOffset dx="0.25"/>
<feGaussianBlur stdDeviation="0.125"/>
<feComposite in2="hardAlpha" operator="arithmetic" k2="-1" k3="1"/>
<feColorMatrix type="matrix" values="0 0 0 0 0.192157 0 0 0 0 0.376471 0 0 0 0 0.721569 0 0 0 1 0"/>
<feBlend mode="normal" in2="shape" result="effect1_innerShadow_3472_68707"/>
<feColorMatrix in="SourceAlpha" type="matrix" values="0 0 0 0 0 0 0 0 0 0 0 0 0 0 0 0 0 0 127 0" result="hardAlpha"/>
<feOffset dy="-0.25"/>
<feGaussianBlur stdDeviation="0.125"/>
<feComposite in2="hardAlpha" operator="arithmetic" k2="-1" k3="1"/>
<feColorMatrix type="matrix" values="0 0 0 0 0.32549 0 0 0 0 0.341176 0 0 0 0 0.819608 0 0 0 1 0"/>
<feBlend mode="normal" in2="effect1_innerShadow_3472_68707" result="effect2_innerShadow_3472_68707"/>
<feColorMatrix in="SourceAlpha" type="matrix" values="0 0 0 0 0 0 0 0 0 0 0 0 0 0 0 0 0 0 127 0" result="hardAlpha"/>
<feOffset dx="-0.15" dy="0.25"/>
<feGaussianBlur stdDeviation="0.125"/>
<feComposite in2="hardAlpha" operator="arithmetic" k2="-1" k3="1"/>
<feColorMatrix type="matrix" values="0 0 0 0 0.317647 0 0 0 0 0.596078 0 0 0 0 0.882353 0 0 0 1 0"/>
<feBlend mode="normal" in2="effect2_innerShadow_3472_68707" result="effect3_innerShadow_3472_68707"/>
</filter>
<filter id="filter4_dii_3472_68707" x="14.9945" y="15.248" width="9.5" height="9.65" filterUnits="userSpaceOnUse" color-interpolation-filters="sRGB">
<feFlood flood-opacity="0" result="BackgroundImageFix"/>
<feColorMatrix in="SourceAlpha" type="matrix" values="0 0 0 0 0 0 0 0 0 0 0 0 0 0 0 0 0 0 127 0" result="hardAlpha"/>
<feOffset dx="-0.15" dy="0.15"/>
<feGaussianBlur stdDeviation="0.125"/>
<feComposite in2="hardAlpha" operator="out"/>
<feColorMatrix type="matrix" values="0 0 0 0 0.152941 0 0 0 0 0.341176 0 0 0 0 0.768627 0 0 0 1 0"/>
<feBlend mode="normal" in2="BackgroundImageFix" result="effect1_dropShadow_3472_68707"/>
<feBlend mode="normal" in="SourceGraphic" in2="effect1_dropShadow_3472_68707" result="shape"/>
<feColorMatrix in="SourceAlpha" type="matrix" values="0 0 0 0 0 0 0 0 0 0 0 0 0 0 0 0 0 0 127 0" result="hardAlpha"/>
<feOffset dy="-0.25"/>
<feGaussianBlur stdDeviation="0.2"/>
<feComposite in2="hardAlpha" operator="arithmetic" k2="-1" k3="1"/>
<feColorMatrix type="matrix" values="0 0 0 0 0.803922 0 0 0 0 0.713726 0 0 0 0 0.921569 0 0 0 1 0"/>
<feBlend mode="normal" in2="shape" result="effect2_innerShadow_3472_68707"/>
<feColorMatrix in="SourceAlpha" type="matrix" values="0 0 0 0 0 0 0 0 0 0 0 0 0 0 0 0 0 0 127 0" result="hardAlpha"/>
<feOffset dx="-0.15" dy="0.15"/>
<feGaussianBlur stdDeviation="0.15"/>
<feComposite in2="hardAlpha" operator="arithmetic" k2="-1" k3="1"/>
<feColorMatrix type="matrix" values="0 0 0 0 0.917647 0 0 0 0 0.890196 0 0 0 0 0.952941 0 0 0 1 0"/>
<feBlend mode="normal" in2="effect2_innerShadow_3472_68707" result="effect3_innerShadow_3472_68707"/>
</filter>
<linearGradient id="paint0_linear_3472_68707" x1="8.0957" y1="21.1562" x2="33.9077" y2="20.9692" gradientUnits="userSpaceOnUse">
<stop stop-color="#DFD0E6"/>
<stop offset="1" stop-color="#EEE5F8"/>
</linearGradient>
<linearGradient id="paint1_linear_3472_68707" x1="6.0957" y1="21.0952" x2="9.1337" y2="21.0952" gradientUnits="userSpaceOnUse">
<stop stop-color="#D6BABD"/>
<stop offset="1" stop-color="#DCC9DD" stop-opacity="0"/>
</linearGradient>
<linearGradient id="paint2_linear_3472_68707" x1="14.8387" y1="22.9723" x2="14.0767" y2="21.7853" gradientUnits="userSpaceOnUse">
<stop offset="0.114" stop-color="#DAC3DF"/>
<stop offset="1" stop-color="#DAC3DF" stop-opacity="0"/>
</linearGradient>
<radialGradient id="paint3_radial_3472_68707" cx="0" cy="0" r="1" gradientUnits="userSpaceOnUse" gradientTransform="translate(16.1245 17.3794) rotate(123.69) scale(2.72523 19.1395)">
<stop offset="0.342" stop-color="#C8A6D7"/>
<stop offset="1" stop-color="#D1BBDD" stop-opacity="0"/>
</radialGradient>
<linearGradient id="paint4_linear_3472_68707" x1="25.094" y1="23.2803" x2="25.924" y2="21.7853" gradientUnits="userSpaceOnUse">
<stop offset="0.114" stop-color="#F6EFFE"/>
<stop offset="1" stop-color="#F3EAFD" stop-opacity="0"/>
</linearGradient>
<linearGradient id="paint5_linear_3472_68707" x1="24.156" y1="17.9373" x2="25.219" y2="19.3743" gradientUnits="userSpaceOnUse">
<stop stop-color="#E3CDF7"/>
<stop offset="1" stop-color="#E9D9F8" stop-opacity="0"/>
</linearGradient>
<linearGradient id="paint6_linear_3472_68707" x1="34.094" y1="23.5623" x2="30.375" y2="23.5623" gradientUnits="userSpaceOnUse">
<stop stop-color="#F7F3FB"/>
<stop offset="1" stop-color="#F0E9F8" stop-opacity="0"/>
</linearGradient>
<linearGradient id="paint7_linear_3472_68707" x1="34.094" y1="23.5623" x2="32.868" y2="23.5623" gradientUnits="userSpaceOnUse">
<stop offset="0.199" stop-color="#EBE9ED"/>
<stop offset="1" stop-color="#EBE9ED" stop-opacity="0"/>
</linearGradient>
<linearGradient id="paint8_linear_3472_68707" x1="20.0007" y1="31.7184" x2="20.0007" y2="20.9054" gradientUnits="userSpaceOnUse">
<stop stop-color="#DDC5F1"/>
<stop offset="1" stop-color="#E6DAF1"/>
</linearGradient>
<linearGradient id="paint9_linear_3472_68707" x1="11.4867" y1="24.1054" x2="11.9427" y2="24.7904" gradientUnits="userSpaceOnUse">
<stop offset="0.073" stop-color="#DDC2C8"/>
<stop offset="1" stop-color="#DFCDDA" stop-opacity="0"/>
</linearGradient>
<linearGradient id="paint10_linear_3472_68707" x1="26.5817" y1="23.1584" x2="26.2947" y2="23.6054" gradientUnits="userSpaceOnUse">
<stop offset="0.14" stop-color="#F8F3FD"/>
<stop offset="1" stop-color="#F1EAF9" stop-opacity="0"/>
</linearGradient>
<linearGradient id="paint11_linear_3472_68707" x1="20.0007" y1="10.0313" x2="20.0007" y2="20.8192" gradientUnits="userSpaceOnUse">
<stop stop-color="#E9E4E9"/>
<stop offset="1" stop-color="#E7DCF0"/>
</linearGradient>
<linearGradient id="paint12_linear_3472_68707" x1="13.8107" y1="16.8783" x2="17.4247" y2="10.3933" gradientUnits="userSpaceOnUse">
<stop stop-color="#E1D5E7"/>
<stop offset="1" stop-color="#E1D5E7" stop-opacity="0"/>
</linearGradient>
<linearGradient id="paint13_linear_3472_68707" x1="6.09475" y1="11.6692" x2="9.02675" y2="11.6692" gradientUnits="userSpaceOnUse">
<stop stop-color="#E1C1BC"/>
<stop offset="1" stop-color="#E9D1CD" stop-opacity="0"/>
</linearGradient>
<radialGradient id="paint14_radial_3472_68707" cx="0" cy="0" r="1" gradientUnits="userSpaceOnUse" gradientTransform="translate(31.458 14.1141) rotate(-138.233) scale(6.12906 27.1579)">
<stop stop-color="#FBF9FE"/>
<stop offset="1" stop-color="#F0ECF1" stop-opacity="0"/>
</radialGradient>
<linearGradient id="paint15_linear_3472_68707" x1="26.4381" y1="18.281" x2="14.6881" y2="22.594" gradientUnits="userSpaceOnUse">
<stop stop-color="#347BD7"/>
<stop offset="1" stop-color="#3477CB"/>
</linearGradient>
</defs>
</svg>
