<svg width="80" height="80" viewBox="0 0 80 80" fill="none" xmlns="http://www.w3.org/2000/svg">
<path d="M70.2335 17.4346C64.8669 16.9013 59.5002 16.5013 54.1002 16.2013V16.168L53.3669 11.8346C52.8669 8.76797 52.1335 4.16797 44.3335 4.16797H35.6002C27.8335 4.16797 27.1002 8.56797 26.5669 11.8013L25.8669 16.068C22.7669 16.268 19.6669 16.468 16.5669 16.768L9.76687 17.4346C8.36687 17.568 7.36687 18.8013 7.5002 20.168C7.63353 21.5346 8.83353 22.5346 10.2335 22.4013L17.0335 21.7346C34.5002 20.0013 52.1002 20.668 69.7669 22.4346C69.8669 22.4346 69.9335 22.4346 70.0335 22.4346C71.3002 22.4346 72.4002 21.468 72.5335 20.168C72.6335 18.8013 71.6335 17.568 70.2335 17.4346Z" fill="#DD2025"/>
<path d="M64.0998 27.132C63.2998 26.2987 62.1998 25.832 61.0665 25.832H18.9331C17.7998 25.832 16.6665 26.2987 15.8998 27.132C15.1331 27.9654 14.6998 29.0987 14.7665 30.2654L16.8332 64.4654C17.1998 69.532 17.6665 75.8654 29.2998 75.8654H50.6998C62.3331 75.8654 62.7998 69.5654 63.1665 64.4654L65.2332 30.2987C65.2998 29.0987 64.8665 27.9654 64.0998 27.132ZM45.5331 59.1654H34.4332C33.0665 59.1654 31.9332 58.032 31.9332 56.6654C31.9332 55.2987 33.0665 54.1654 34.4332 54.1654H45.5331C46.8998 54.1654 48.0331 55.2987 48.0331 56.6654C48.0331 58.032 46.8998 59.1654 45.5331 59.1654ZM48.3331 45.832H31.6665C30.2998 45.832 29.1665 44.6987 29.1665 43.332C29.1665 41.9654 30.2998 40.832 31.6665 40.832H48.3331C49.6998 40.832 50.8331 41.9654 50.8331 43.332C50.8331 44.6987 49.6998 45.832 48.3331 45.832Z" fill="#DD2025"/>
</svg>
