<svg width="13" height="13" viewBox="0 0 13 13" fill="none" xmlns="http://www.w3.org/2000/svg">
<path d="M6.17339 1.09375C3.39173 1.09375 1.125 3.36048 1.125 6.14214C1.125 8.9238 3.39173 11.1905 6.17339 11.1905C8.95505 11.1905 11.2218 8.9238 11.2218 6.14214C11.2218 3.36048 8.95505 1.09375 6.17339 1.09375ZM8.58652 4.98101L5.72408 7.84344C5.6534 7.91412 5.55748 7.95451 5.45652 7.95451C5.35555 7.95451 5.25963 7.91412 5.18895 7.84344L3.76026 6.41475C3.61385 6.26835 3.61385 6.02602 3.76026 5.87962C3.90666 5.73322 4.14898 5.73322 4.29539 5.87962L5.45652 7.04075L8.05139 4.44588C8.19779 4.29948 8.44011 4.29948 8.58652 4.44588C8.73292 4.59228 8.73292 4.82956 8.58652 4.98101Z" fill="#5B52B6"/>
</svg>
