<svg width="146" height="53" viewBox="0 0 146 53" fill="none" xmlns="http://www.w3.org/2000/svg">
<rect x="0.5" y="0.52832" width="145" height="51" rx="7.5" stroke="#F1F1F1"/>
<g clip-path="url(#clip0_1503_10969)">
<path d="M12.4193 36.2206L13.8305 38.6581C14.1237 39.1713 14.5452 39.5746 15.0401 39.8678C16.4575 38.0686 17.4442 36.6878 18.0001 35.7257C18.5643 34.7493 19.2577 33.222 20.0802 31.1438C17.8632 30.852 16.1832 30.7061 15.0402 30.7061C13.9432 30.7061 12.2631 30.852 10 31.1438C10 31.7119 10.1466 32.2801 10.4399 32.7933L12.4193 36.2206Z" fill="#0066DA"/>
<path d="M36.9602 39.8678C37.4552 39.5746 37.8767 39.1713 38.1699 38.6582L38.7564 37.6502L41.5606 32.7933C41.8484 32.2912 42 31.7226 42.0004 31.1438C39.7241 30.852 38.0471 30.7061 36.9695 30.7061C35.8112 30.7061 34.1342 30.852 31.9385 31.1438C32.7513 33.2334 33.4356 34.7607 33.9912 35.7257C34.5516 36.6993 35.5412 38.08 36.9602 39.8678Z" fill="#EA4335"/>
<path d="M26.0001 20.8797C27.6401 18.899 28.7703 17.3717 29.3907 16.2978C29.8904 15.4331 30.4402 14.0524 31.0402 12.1557C30.5453 11.8624 29.9772 11.7158 29.3907 11.7158H22.6095C22.023 11.7158 21.455 11.8808 20.96 12.1557C21.7233 14.3309 22.371 15.879 22.903 16.7999C23.491 17.8177 24.5233 19.1776 26.0001 20.8797Z" fill="#00832D"/>
<path d="M31.9198 31.1436H20.08L15.04 39.8676C15.5348 40.1608 16.1029 40.3074 16.6894 40.3074H35.3104C35.8969 40.3074 36.4652 40.1424 36.9599 39.8674L31.9198 31.1436Z" fill="#2684FC"/>
<path d="M26.0001 20.8801L20.9601 12.1562C20.4651 12.4495 20.0436 12.8526 19.7504 13.3659L10.4399 29.4942C10.152 29.9964 10.0004 30.565 10 31.1437H20.0802L26.0001 20.8801Z" fill="#00AC47"/>
<path d="M36.905 21.4291L32.2496 13.3649C31.9565 12.8516 31.5349 12.4485 31.04 12.1553L26 20.8793L31.9198 31.1429H41.9818C41.9818 30.5746 41.8351 30.0066 41.5419 29.4934L36.905 21.4291Z" fill="#FFBA00"/>
</g>
<path d="M50.71 21.0283V14.0283H53.45C53.9433 14.0283 54.3533 14.105 54.68 14.2583C55.0133 14.4117 55.2633 14.625 55.43 14.8983C55.5967 15.165 55.68 15.475 55.68 15.8283C55.68 16.1817 55.6033 16.4783 55.45 16.7183C55.2967 16.9583 55.0933 17.1417 54.84 17.2683C54.5933 17.395 54.3233 17.4717 54.03 17.4983L54.18 17.3883C54.4933 17.395 54.7733 17.4783 55.02 17.6383C55.2733 17.7983 55.4733 18.0083 55.62 18.2683C55.7667 18.5217 55.84 18.805 55.84 19.1183C55.84 19.485 55.75 19.815 55.57 20.1083C55.3967 20.395 55.14 20.6217 54.8 20.7883C54.46 20.9483 54.0433 21.0283 53.55 21.0283H50.71ZM51.91 20.0483H53.37C53.7633 20.0483 54.07 19.955 54.29 19.7683C54.51 19.5817 54.62 19.3217 54.62 18.9883C54.62 18.655 54.5067 18.3917 54.28 18.1983C54.0533 17.9983 53.7433 17.8983 53.35 17.8983H51.91V20.0483ZM51.91 16.9883H53.28C53.6667 16.9883 53.96 16.9017 54.16 16.7283C54.36 16.5483 54.46 16.3017 54.46 15.9883C54.46 15.6817 54.36 15.4417 54.16 15.2683C53.96 15.0883 53.6633 14.9983 53.27 14.9983H51.91V16.9883ZM56.9493 21.0283V15.9883H58.0193L58.1293 16.9283C58.2493 16.7083 58.3993 16.5217 58.5793 16.3683C58.7593 16.2083 58.9693 16.085 59.2093 15.9983C59.456 15.9117 59.726 15.8683 60.0193 15.8683V17.1383H59.5993C59.3993 17.1383 59.2093 17.165 59.0293 17.2183C58.8493 17.265 58.6926 17.345 58.5593 17.4583C58.4326 17.565 58.3326 17.715 58.2593 17.9083C58.186 18.095 58.1493 18.3317 58.1493 18.6183V21.0283H56.9493ZM62.6039 21.1483C62.1906 21.1483 61.8472 21.0783 61.5739 20.9383C61.3006 20.7983 61.0972 20.6117 60.9639 20.3783C60.8306 20.145 60.7639 19.8917 60.7639 19.6183C60.7639 19.2983 60.8439 19.0217 61.0039 18.7883C61.1706 18.555 61.4139 18.375 61.7339 18.2483C62.0539 18.115 62.4472 18.0483 62.9139 18.0483H64.1839C64.1839 17.7817 64.1472 17.5617 64.0739 17.3883C64.0006 17.2083 63.8872 17.075 63.7339 16.9883C63.5806 16.9017 63.3839 16.8583 63.1439 16.8583C62.8706 16.8583 62.6372 16.9217 62.4439 17.0483C62.2506 17.1683 62.1306 17.355 62.0839 17.6083H60.9039C60.9439 17.2483 61.0639 16.9417 61.2639 16.6883C61.4639 16.4283 61.7272 16.2283 62.0539 16.0883C62.3872 15.9417 62.7506 15.8683 63.1439 15.8683C63.6172 15.8683 64.0206 15.9517 64.3539 16.1183C64.6872 16.2783 64.9406 16.5117 65.1139 16.8183C65.2939 17.1183 65.3839 17.4817 65.3839 17.9083V21.0283H64.3639L64.2439 20.2183C64.1772 20.3517 64.0906 20.475 63.9839 20.5883C63.8839 20.7017 63.7672 20.8017 63.6339 20.8883C63.5006 20.9683 63.3472 21.0317 63.1739 21.0783C63.0072 21.125 62.8172 21.1483 62.6039 21.1483ZM62.8739 20.1983C63.0672 20.1983 63.2372 20.165 63.3839 20.0983C63.5372 20.025 63.6672 19.925 63.7739 19.7983C63.8872 19.665 63.9739 19.5183 64.0339 19.3583C64.0939 19.1983 64.1339 19.0283 64.1539 18.8483V18.8283H63.0439C62.8106 18.8283 62.6172 18.8583 62.4639 18.9183C62.3106 18.9717 62.2006 19.0517 62.1339 19.1583C62.0672 19.265 62.0339 19.3883 62.0339 19.5283C62.0339 19.6683 62.0672 19.7883 62.1339 19.8883C62.2006 19.9883 62.2972 20.065 62.4239 20.1183C62.5506 20.1717 62.7006 20.1983 62.8739 20.1983ZM66.6661 21.0283V15.9883H67.7261L67.8161 16.8283C67.9694 16.535 68.1894 16.3017 68.4761 16.1283C68.7628 15.955 69.1028 15.8683 69.4961 15.8683C69.9028 15.8683 70.2494 15.955 70.5361 16.1283C70.8228 16.295 71.0428 16.5417 71.1961 16.8683C71.3561 17.195 71.4361 17.6017 71.4361 18.0883V21.0283H70.2361V18.1983C70.2361 17.7783 70.1428 17.455 69.9561 17.2283C69.7694 17.0017 69.4928 16.8883 69.1261 16.8883C68.8861 16.8883 68.6694 16.945 68.4761 17.0583C68.2894 17.1717 68.1394 17.3383 68.0261 17.5583C67.9194 17.7717 67.8661 18.0317 67.8661 18.3383V21.0283H66.6661ZM74.9413 21.1483C74.4746 21.1483 74.0579 21.035 73.6913 20.8083C73.3246 20.5817 73.0379 20.2683 72.8313 19.8683C72.6313 19.4683 72.5313 19.015 72.5313 18.5083C72.5313 18.0017 72.6346 17.5517 72.8413 17.1583C73.0479 16.7583 73.3346 16.445 73.7013 16.2183C74.0746 15.985 74.4946 15.8683 74.9613 15.8683C75.3413 15.8683 75.6713 15.9417 75.9513 16.0883C76.2379 16.2283 76.4646 16.4283 76.6313 16.6883V13.8283H77.8313V21.0283H76.7513L76.6313 20.2983C76.5246 20.445 76.3946 20.585 76.2413 20.7183C76.0879 20.845 75.9046 20.9483 75.6913 21.0283C75.4779 21.1083 75.2279 21.1483 74.9413 21.1483ZM75.1913 20.1083C75.4779 20.1083 75.7313 20.0417 75.9513 19.9083C76.1713 19.7683 76.3413 19.5783 76.4613 19.3383C76.5813 19.0983 76.6413 18.8217 76.6413 18.5083C76.6413 18.195 76.5813 17.9183 76.4613 17.6783C76.3413 17.4383 76.1713 17.2517 75.9513 17.1183C75.7313 16.985 75.4779 16.9183 75.1913 16.9183C74.9179 16.9183 74.6713 16.985 74.4513 17.1183C74.2313 17.2517 74.0579 17.4383 73.9313 17.6783C73.8113 17.9183 73.7513 18.195 73.7513 18.5083C73.7513 18.8217 73.8113 19.0983 73.9313 19.3383C74.0579 19.5783 74.2313 19.7683 74.4513 19.9083C74.6713 20.0417 74.9179 20.1083 75.1913 20.1083ZM79.2161 21.0283V15.9883H80.4161V21.0283H79.2161ZM79.8161 15.1883C79.5961 15.1883 79.4128 15.1217 79.2661 14.9883C79.1261 14.8483 79.0561 14.6783 79.0561 14.4783C79.0561 14.2717 79.1261 14.105 79.2661 13.9783C79.4128 13.845 79.5961 13.7783 79.8161 13.7783C80.0361 13.7783 80.2161 13.845 80.3561 13.9783C80.5028 14.105 80.5761 14.2717 80.5761 14.4783C80.5761 14.6783 80.5028 14.8483 80.3561 14.9883C80.2161 15.1217 80.0361 15.1883 79.8161 15.1883ZM81.8028 21.0283V15.9883H82.8628L82.9528 16.8283C83.1061 16.535 83.3261 16.3017 83.6128 16.1283C83.8995 15.955 84.2395 15.8683 84.6328 15.8683C85.0395 15.8683 85.3861 15.955 85.6728 16.1283C85.9595 16.295 86.1795 16.5417 86.3328 16.8683C86.4928 17.195 86.5728 17.6017 86.5728 18.0883V21.0283H85.3728V18.1983C85.3728 17.7783 85.2795 17.455 85.0928 17.2283C84.9061 17.0017 84.6295 16.8883 84.2628 16.8883C84.0228 16.8883 83.8061 16.945 83.6128 17.0583C83.4261 17.1717 83.2761 17.3383 83.1628 17.5583C83.0561 17.7717 83.0028 18.0317 83.0028 18.3383V21.0283H81.8028ZM89.958 23.3483C89.4846 23.3483 89.068 23.2883 88.708 23.1683C88.3546 23.055 88.078 22.8783 87.878 22.6383C87.6846 22.405 87.588 22.1117 87.588 21.7583C87.588 21.5517 87.638 21.3483 87.738 21.1483C87.8446 20.955 88.0013 20.775 88.208 20.6083C88.4213 20.435 88.6913 20.285 89.018 20.1583L89.548 20.7383C89.228 20.8517 89.0046 20.9883 88.878 21.1483C88.7513 21.3083 88.688 21.4717 88.688 21.6383C88.688 21.8117 88.7413 21.955 88.848 22.0683C88.9613 22.1883 89.1113 22.2783 89.298 22.3383C89.4913 22.3983 89.708 22.4283 89.948 22.4283C90.1813 22.4283 90.3846 22.395 90.558 22.3283C90.7313 22.2683 90.8646 22.1817 90.958 22.0683C91.058 21.955 91.108 21.8183 91.108 21.6583C91.108 21.4583 91.038 21.295 90.898 21.1683C90.758 21.0483 90.4813 20.975 90.068 20.9483C89.7146 20.9217 89.4046 20.885 89.138 20.8383C88.8713 20.785 88.6413 20.725 88.448 20.6583C88.2613 20.5917 88.1013 20.5183 87.968 20.4383C87.8346 20.3517 87.7246 20.265 87.638 20.1783V19.9483L88.688 18.8483L89.578 19.1383L88.398 20.2883L88.708 19.7083C88.7746 19.755 88.8413 19.7983 88.908 19.8383C88.9813 19.8783 89.0713 19.915 89.178 19.9483C89.2913 19.975 89.438 20.0017 89.618 20.0283C89.798 20.055 90.0313 20.0817 90.318 20.1083C90.7646 20.1417 91.128 20.2217 91.408 20.3483C91.688 20.475 91.8946 20.645 92.028 20.8583C92.1613 21.0717 92.228 21.3283 92.228 21.6283C92.228 21.9217 92.1446 22.1983 91.978 22.4583C91.818 22.7183 91.5713 22.9317 91.238 23.0983C90.9046 23.265 90.478 23.3483 89.958 23.3483ZM89.958 19.5183C89.538 19.5183 89.1746 19.4383 88.868 19.2783C88.568 19.1117 88.338 18.8917 88.178 18.6183C88.018 18.3383 87.938 18.0317 87.938 17.6983C87.938 17.3583 88.018 17.0517 88.178 16.7783C88.338 16.505 88.568 16.285 88.868 16.1183C89.1746 15.9517 89.538 15.8683 89.958 15.8683C90.378 15.8683 90.738 15.9517 91.038 16.1183C91.338 16.285 91.568 16.505 91.728 16.7783C91.888 17.0517 91.968 17.3583 91.968 17.6983C91.968 18.0317 91.888 18.3383 91.728 18.6183C91.568 18.8917 91.338 19.1117 91.038 19.2783C90.738 19.4383 90.378 19.5183 89.958 19.5183ZM89.958 18.5883C90.2446 18.5883 90.4746 18.5117 90.648 18.3583C90.8213 18.205 90.908 17.985 90.908 17.6983C90.908 17.4117 90.8213 17.195 90.648 17.0483C90.4746 16.895 90.2446 16.8183 89.958 16.8183C89.6713 16.8183 89.438 16.895 89.258 17.0483C89.078 17.195 88.988 17.4117 88.988 17.6983C88.988 17.985 89.078 18.205 89.258 18.3583C89.438 18.5117 89.6713 18.5883 89.958 18.5883ZM90.788 16.8683L90.558 15.9883H92.628V16.7383L90.788 16.8683ZM95.709 21.0283L98.269 14.0283H99.609L102.169 21.0283H100.899L98.929 15.4283L96.959 21.0283H95.709ZM96.849 19.3783L97.169 18.4283H100.619L100.939 19.3783H96.849ZM105.102 21.1483C104.655 21.1483 104.265 21.0783 103.932 20.9383C103.605 20.7917 103.345 20.5917 103.152 20.3383C102.965 20.0783 102.855 19.7817 102.822 19.4483H104.022C104.055 19.5883 104.115 19.7183 104.202 19.8383C104.289 19.9517 104.405 20.0417 104.552 20.1083C104.705 20.175 104.885 20.2083 105.092 20.2083C105.292 20.2083 105.455 20.1817 105.582 20.1283C105.709 20.0683 105.802 19.9917 105.862 19.8983C105.922 19.805 105.952 19.705 105.952 19.5983C105.952 19.4383 105.909 19.315 105.822 19.2283C105.735 19.1417 105.609 19.075 105.442 19.0283C105.282 18.975 105.089 18.925 104.862 18.8783C104.622 18.8317 104.389 18.775 104.162 18.7083C103.942 18.635 103.742 18.545 103.562 18.4383C103.389 18.3317 103.249 18.195 103.142 18.0283C103.042 17.8617 102.992 17.6583 102.992 17.4183C102.992 17.125 103.069 16.8617 103.222 16.6283C103.382 16.395 103.609 16.2117 103.902 16.0783C104.202 15.9383 104.559 15.8683 104.972 15.8683C105.559 15.8683 106.025 16.005 106.372 16.2783C106.725 16.545 106.932 16.9217 106.992 17.4083H105.852C105.819 17.2217 105.725 17.0783 105.572 16.9783C105.419 16.8717 105.215 16.8183 104.962 16.8183C104.702 16.8183 104.502 16.8683 104.362 16.9683C104.229 17.0617 104.162 17.1883 104.162 17.3483C104.162 17.4483 104.202 17.5417 104.282 17.6283C104.369 17.7083 104.492 17.7783 104.652 17.8383C104.812 17.8917 105.009 17.945 105.242 17.9983C105.615 18.0717 105.945 18.1583 106.232 18.2583C106.519 18.3583 106.745 18.505 106.912 18.6983C107.079 18.8917 107.162 19.165 107.162 19.5183C107.169 19.8383 107.085 20.1217 106.912 20.3683C106.745 20.615 106.509 20.8083 106.202 20.9483C105.895 21.0817 105.529 21.1483 105.102 21.1483ZM110.336 21.1483C109.89 21.1483 109.5 21.0783 109.166 20.9383C108.84 20.7917 108.58 20.5917 108.386 20.3383C108.2 20.0783 108.09 19.7817 108.056 19.4483H109.256C109.29 19.5883 109.35 19.7183 109.436 19.8383C109.523 19.9517 109.64 20.0417 109.786 20.1083C109.94 20.175 110.12 20.2083 110.326 20.2083C110.526 20.2083 110.69 20.1817 110.816 20.1283C110.943 20.0683 111.036 19.9917 111.096 19.8983C111.156 19.805 111.186 19.705 111.186 19.5983C111.186 19.4383 111.143 19.315 111.056 19.2283C110.97 19.1417 110.843 19.075 110.676 19.0283C110.516 18.975 110.323 18.925 110.096 18.8783C109.856 18.8317 109.623 18.775 109.396 18.7083C109.176 18.635 108.976 18.545 108.796 18.4383C108.623 18.3317 108.483 18.195 108.376 18.0283C108.276 17.8617 108.226 17.6583 108.226 17.4183C108.226 17.125 108.303 16.8617 108.456 16.6283C108.616 16.395 108.843 16.2117 109.136 16.0783C109.436 15.9383 109.793 15.8683 110.206 15.8683C110.793 15.8683 111.26 16.005 111.606 16.2783C111.96 16.545 112.166 16.9217 112.226 17.4083H111.086C111.053 17.2217 110.96 17.0783 110.806 16.9783C110.653 16.8717 110.45 16.8183 110.196 16.8183C109.936 16.8183 109.736 16.8683 109.596 16.9683C109.463 17.0617 109.396 17.1883 109.396 17.3483C109.396 17.4483 109.436 17.5417 109.516 17.6283C109.603 17.7083 109.726 17.7783 109.886 17.8383C110.046 17.8917 110.243 17.945 110.476 17.9983C110.85 18.0717 111.18 18.1583 111.466 18.2583C111.753 18.3583 111.98 18.505 112.146 18.6983C112.313 18.8917 112.396 19.165 112.396 19.5183C112.403 19.8383 112.32 20.1217 112.146 20.3683C111.98 20.615 111.743 20.8083 111.436 20.9483C111.13 21.0817 110.763 21.1483 110.336 21.1483ZM115.921 21.1483C115.421 21.1483 114.981 21.0417 114.601 20.8283C114.221 20.6083 113.924 20.3017 113.711 19.9083C113.497 19.515 113.391 19.0617 113.391 18.5483C113.391 18.015 113.494 17.5483 113.701 17.1483C113.914 16.7483 114.211 16.435 114.591 16.2083C114.977 15.9817 115.424 15.8683 115.931 15.8683C116.424 15.8683 116.854 15.9783 117.221 16.1983C117.587 16.4183 117.871 16.715 118.071 17.0883C118.271 17.455 118.371 17.8683 118.371 18.3283C118.371 18.395 118.371 18.4683 118.371 18.5483C118.371 18.6283 118.364 18.7117 118.351 18.7983H114.251V18.0283H117.161C117.147 17.6617 117.024 17.375 116.791 17.1683C116.557 16.955 116.267 16.8483 115.921 16.8483C115.674 16.8483 115.447 16.905 115.241 17.0183C115.034 17.1317 114.871 17.3017 114.751 17.5283C114.631 17.7483 114.571 18.0283 114.571 18.3683V18.6583C114.571 18.9717 114.627 19.2417 114.741 19.4683C114.861 19.695 115.021 19.8683 115.221 19.9883C115.427 20.1017 115.657 20.1583 115.911 20.1583C116.191 20.1583 116.421 20.0983 116.601 19.9783C116.787 19.8583 116.924 19.6983 117.011 19.4983H118.231C118.137 19.8117 117.984 20.095 117.771 20.3483C117.557 20.595 117.294 20.7917 116.981 20.9383C116.667 21.0783 116.314 21.1483 115.921 21.1483ZM121.571 21.0283C121.231 21.0283 120.934 20.975 120.681 20.8683C120.434 20.7617 120.241 20.585 120.101 20.3383C119.961 20.0917 119.891 19.7583 119.891 19.3383V16.9983H119.031V15.9883H119.891L120.031 14.6583H121.091V15.9883H122.461V16.9983H121.091V19.3383C121.091 19.5917 121.144 19.7683 121.251 19.8683C121.364 19.9617 121.551 20.0083 121.811 20.0083H122.431V21.0283H121.571ZM125.6 21.1483C125.153 21.1483 124.763 21.0783 124.43 20.9383C124.103 20.7917 123.843 20.5917 123.65 20.3383C123.463 20.0783 123.353 19.7817 123.32 19.4483H124.52C124.553 19.5883 124.613 19.7183 124.7 19.8383C124.787 19.9517 124.903 20.0417 125.05 20.1083C125.203 20.175 125.383 20.2083 125.59 20.2083C125.79 20.2083 125.953 20.1817 126.08 20.1283C126.207 20.0683 126.3 19.9917 126.36 19.8983C126.42 19.805 126.45 19.705 126.45 19.5983C126.45 19.4383 126.407 19.315 126.32 19.2283C126.233 19.1417 126.107 19.075 125.94 19.0283C125.78 18.975 125.587 18.925 125.36 18.8783C125.12 18.8317 124.887 18.775 124.66 18.7083C124.44 18.635 124.24 18.545 124.06 18.4383C123.887 18.3317 123.747 18.195 123.64 18.0283C123.54 17.8617 123.49 17.6583 123.49 17.4183C123.49 17.125 123.567 16.8617 123.72 16.6283C123.88 16.395 124.107 16.2117 124.4 16.0783C124.7 15.9383 125.057 15.8683 125.47 15.8683C126.057 15.8683 126.523 16.005 126.87 16.2783C127.223 16.545 127.43 16.9217 127.49 17.4083H126.35C126.317 17.2217 126.223 17.0783 126.07 16.9783C125.917 16.8717 125.713 16.8183 125.46 16.8183C125.2 16.8183 125 16.8683 124.86 16.9683C124.727 17.0617 124.66 17.1883 124.66 17.3483C124.66 17.4483 124.7 17.5417 124.78 17.6283C124.867 17.7083 124.99 17.7783 125.15 17.8383C125.31 17.8917 125.507 17.945 125.74 17.9983C126.113 18.0717 126.443 18.1583 126.73 18.2583C127.017 18.3583 127.243 18.505 127.41 18.6983C127.577 18.8917 127.66 19.165 127.66 19.5183C127.667 19.8383 127.583 20.1217 127.41 20.3683C127.243 20.615 127.007 20.8083 126.7 20.9483C126.393 21.0817 126.027 21.1483 125.6 21.1483Z" fill="#101828"/>
<path d="M50.71 38.0283V31.0283H52.13L54.37 35.5483L56.59 31.0283H58.02V38.0283H56.82V33.0883L54.84 37.0483H53.9L51.91 33.0983V38.0283H50.71ZM61.7605 38.1483C61.2605 38.1483 60.8205 38.0417 60.4405 37.8283C60.0605 37.6083 59.7638 37.3017 59.5505 36.9083C59.3371 36.515 59.2305 36.0617 59.2305 35.5483C59.2305 35.015 59.3338 34.5483 59.5405 34.1483C59.7538 33.7483 60.0505 33.435 60.4305 33.2083C60.8171 32.9817 61.2638 32.8683 61.7705 32.8683C62.2638 32.8683 62.6938 32.9783 63.0605 33.1983C63.4271 33.4183 63.7105 33.715 63.9105 34.0883C64.1105 34.455 64.2105 34.8683 64.2105 35.3283C64.2105 35.395 64.2105 35.4683 64.2105 35.5483C64.2105 35.6283 64.2038 35.7117 64.1905 35.7983H60.0905V35.0283H63.0005C62.9871 34.6617 62.8638 34.375 62.6305 34.1683C62.3971 33.955 62.1071 33.8483 61.7605 33.8483C61.5138 33.8483 61.2871 33.905 61.0805 34.0183C60.8738 34.1317 60.7105 34.3017 60.5905 34.5283C60.4705 34.7483 60.4105 35.0283 60.4105 35.3683V35.6583C60.4105 35.9717 60.4671 36.2417 60.5805 36.4683C60.7005 36.695 60.8605 36.8683 61.0605 36.9883C61.2671 37.1017 61.4971 37.1583 61.7505 37.1583C62.0305 37.1583 62.2605 37.0983 62.4405 36.9783C62.6271 36.8583 62.7638 36.6983 62.8505 36.4983H64.0705C63.9771 36.8117 63.8238 37.095 63.6105 37.3483C63.3971 37.595 63.1338 37.7917 62.8205 37.9383C62.5071 38.0783 62.1538 38.1483 61.7605 38.1483ZM67.5584 38.1483C67.0918 38.1483 66.6751 38.035 66.3084 37.8083C65.9418 37.5817 65.6551 37.2683 65.4484 36.8683C65.2484 36.4683 65.1484 36.015 65.1484 35.5083C65.1484 35.0017 65.2518 34.5517 65.4584 34.1583C65.6651 33.7583 65.9518 33.445 66.3184 33.2183C66.6918 32.985 67.1118 32.8683 67.5784 32.8683C67.9584 32.8683 68.2884 32.9417 68.5684 33.0883C68.8551 33.2283 69.0818 33.4283 69.2484 33.6883V30.8283H70.4484V38.0283H69.3684L69.2484 37.2983C69.1418 37.445 69.0118 37.585 68.8584 37.7183C68.7051 37.845 68.5218 37.9483 68.3084 38.0283C68.0951 38.1083 67.8451 38.1483 67.5584 38.1483ZM67.8084 37.1083C68.0951 37.1083 68.3484 37.0417 68.5684 36.9083C68.7884 36.7683 68.9584 36.5783 69.0784 36.3383C69.1984 36.0983 69.2584 35.8217 69.2584 35.5083C69.2584 35.195 69.1984 34.9183 69.0784 34.6783C68.9584 34.4383 68.7884 34.2517 68.5684 34.1183C68.3484 33.985 68.0951 33.9183 67.8084 33.9183C67.5351 33.9183 67.2884 33.985 67.0684 34.1183C66.8484 34.2517 66.6751 34.4383 66.5484 34.6783C66.4284 34.9183 66.3684 35.195 66.3684 35.5083C66.3684 35.8217 66.4284 36.0983 66.5484 36.3383C66.6751 36.5783 66.8484 36.7683 67.0684 36.9083C67.2884 37.0417 67.5351 37.1083 67.8084 37.1083ZM71.8333 38.0283V32.9883H73.0333V38.0283H71.8333ZM72.4333 32.1883C72.2133 32.1883 72.0299 32.1217 71.8833 31.9883C71.7433 31.8483 71.6733 31.6783 71.6733 31.4783C71.6733 31.2717 71.7433 31.105 71.8833 30.9783C72.0299 30.845 72.2133 30.7783 72.4333 30.7783C72.6533 30.7783 72.8333 30.845 72.9733 30.9783C73.1199 31.105 73.1933 31.2717 73.1933 31.4783C73.1933 31.6783 73.1199 31.8483 72.9733 31.9883C72.8333 32.1217 72.6533 32.1883 72.4333 32.1883ZM76.1 38.1483C75.6867 38.1483 75.3433 38.0783 75.07 37.9383C74.7967 37.7983 74.5933 37.6117 74.46 37.3783C74.3267 37.145 74.26 36.8917 74.26 36.6183C74.26 36.2983 74.34 36.0217 74.5 35.7883C74.6667 35.555 74.91 35.375 75.23 35.2483C75.55 35.115 75.9433 35.0483 76.41 35.0483H77.68C77.68 34.7817 77.6433 34.5617 77.57 34.3883C77.4967 34.2083 77.3833 34.075 77.23 33.9883C77.0767 33.9017 76.88 33.8583 76.64 33.8583C76.3667 33.8583 76.1333 33.9217 75.94 34.0483C75.7467 34.1683 75.6267 34.355 75.58 34.6083H74.4C74.44 34.2483 74.56 33.9417 74.76 33.6883C74.96 33.4283 75.2233 33.2283 75.55 33.0883C75.8833 32.9417 76.2467 32.8683 76.64 32.8683C77.1133 32.8683 77.5167 32.9517 77.85 33.1183C78.1833 33.2783 78.4367 33.5117 78.61 33.8183C78.79 34.1183 78.88 34.4817 78.88 34.9083V38.0283H77.86L77.74 37.2183C77.6733 37.3517 77.5867 37.475 77.48 37.5883C77.38 37.7017 77.2633 37.8017 77.13 37.8883C76.9967 37.9683 76.8433 38.0317 76.67 38.0783C76.5033 38.125 76.3133 38.1483 76.1 38.1483ZM76.37 37.1983C76.5633 37.1983 76.7333 37.165 76.88 37.0983C77.0333 37.025 77.1633 36.925 77.27 36.7983C77.3833 36.665 77.47 36.5183 77.53 36.3583C77.59 36.1983 77.63 36.0283 77.65 35.8483V35.8283H76.54C76.3067 35.8283 76.1133 35.8583 75.96 35.9183C75.8067 35.9717 75.6967 36.0517 75.63 36.1583C75.5633 36.265 75.53 36.3883 75.53 36.5283C75.53 36.6683 75.5633 36.7883 75.63 36.8883C75.6967 36.9883 75.7933 37.065 75.92 37.1183C76.0467 37.1717 76.1967 37.1983 76.37 37.1983ZM82.6836 35.5783V34.5783H86.8236V35.5783H82.6836ZM90.7393 38.0283V31.0283H92.9993C93.8126 31.0283 94.4826 31.1717 95.0093 31.4583C95.5426 31.745 95.936 32.1517 96.1893 32.6783C96.4493 33.1983 96.5793 33.8183 96.5793 34.5383C96.5793 35.245 96.4493 35.8617 96.1893 36.3883C95.936 36.9083 95.5426 37.3117 95.0093 37.5983C94.4826 37.885 93.8126 38.0283 92.9993 38.0283H90.7393ZM91.9393 37.0083H92.9393C93.546 37.0083 94.0226 36.9117 94.3693 36.7183C94.7226 36.5183 94.9726 36.235 95.1193 35.8683C95.2726 35.495 95.3493 35.0517 95.3493 34.5383C95.3493 34.0183 95.2726 33.575 95.1193 33.2083C94.9726 32.835 94.7226 32.5483 94.3693 32.3483C94.0226 32.1417 93.546 32.0383 92.9393 32.0383H91.9393V37.0083ZM100.061 38.1483C99.581 38.1483 99.1477 38.0383 98.761 37.8183C98.381 37.5917 98.081 37.2817 97.861 36.8883C97.6477 36.4883 97.541 36.0317 97.541 35.5183C97.541 34.9917 97.651 34.5317 97.871 34.1383C98.091 33.7383 98.391 33.4283 98.771 33.2083C99.1577 32.9817 99.591 32.8683 100.071 32.8683C100.551 32.8683 100.981 32.9817 101.361 33.2083C101.748 33.4283 102.048 33.735 102.261 34.1283C102.481 34.5217 102.591 34.9817 102.591 35.5083C102.591 36.035 102.481 36.495 102.261 36.8883C102.041 37.2817 101.738 37.5917 101.351 37.8183C100.971 38.0383 100.541 38.1483 100.061 38.1483ZM100.061 37.1183C100.301 37.1183 100.518 37.0583 100.711 36.9383C100.911 36.8183 101.071 36.6383 101.191 36.3983C101.311 36.1583 101.371 35.8617 101.371 35.5083C101.371 35.155 101.311 34.8617 101.191 34.6283C101.078 34.3883 100.921 34.2083 100.721 34.0883C100.528 33.9683 100.311 33.9083 100.071 33.9083C99.8377 33.9083 99.621 33.9683 99.421 34.0883C99.221 34.2083 99.061 34.3883 98.941 34.6283C98.821 34.8617 98.761 35.155 98.761 35.5083C98.761 35.8617 98.821 36.1583 98.941 36.3983C99.061 36.6383 99.2177 36.8183 99.411 36.9383C99.611 37.0583 99.8277 37.1183 100.061 37.1183ZM104.59 38.0283L103.11 32.9883H104.3L105.33 37.1283L105.11 37.1183L106.26 32.9883H107.6L108.76 37.1183H108.54L109.57 32.9883H110.76L109.28 38.0283H108.04L106.81 33.7583H107.06L105.83 38.0283H104.59ZM111.617 38.0283V32.9883H112.677L112.767 33.8283C112.921 33.535 113.141 33.3017 113.427 33.1283C113.714 32.955 114.054 32.8683 114.447 32.8683C114.854 32.8683 115.201 32.955 115.487 33.1283C115.774 33.295 115.994 33.5417 116.147 33.8683C116.307 34.195 116.387 34.6017 116.387 35.0883V38.0283H115.187V35.1983C115.187 34.7783 115.094 34.455 114.907 34.2283C114.721 34.0017 114.444 33.8883 114.077 33.8883C113.837 33.8883 113.621 33.945 113.427 34.0583C113.241 34.1717 113.091 34.3383 112.977 34.5583C112.871 34.7717 112.817 35.0317 112.817 35.3383V38.0283H111.617ZM117.652 38.0283V30.8283H118.852V38.0283H117.652ZM122.541 38.1483C122.061 38.1483 121.628 38.0383 121.241 37.8183C120.861 37.5917 120.561 37.2817 120.341 36.8883C120.128 36.4883 120.021 36.0317 120.021 35.5183C120.021 34.9917 120.131 34.5317 120.351 34.1383C120.571 33.7383 120.871 33.4283 121.251 33.2083C121.638 32.9817 122.071 32.8683 122.551 32.8683C123.031 32.8683 123.461 32.9817 123.841 33.2083C124.228 33.4283 124.528 33.735 124.741 34.1283C124.961 34.5217 125.071 34.9817 125.071 35.5083C125.071 36.035 124.961 36.495 124.741 36.8883C124.521 37.2817 124.218 37.5917 123.831 37.8183C123.451 38.0383 123.021 38.1483 122.541 38.1483ZM122.541 37.1183C122.781 37.1183 122.998 37.0583 123.191 36.9383C123.391 36.8183 123.551 36.6383 123.671 36.3983C123.791 36.1583 123.851 35.8617 123.851 35.5083C123.851 35.155 123.791 34.8617 123.671 34.6283C123.558 34.3883 123.401 34.2083 123.201 34.0883C123.008 33.9683 122.791 33.9083 122.551 33.9083C122.318 33.9083 122.101 33.9683 121.901 34.0883C121.701 34.2083 121.541 34.3883 121.421 34.6283C121.301 34.8617 121.241 35.155 121.241 35.5083C121.241 35.8617 121.301 36.1583 121.421 36.3983C121.541 36.6383 121.698 36.8183 121.891 36.9383C122.091 37.0583 122.308 37.1183 122.541 37.1183ZM127.926 38.1483C127.513 38.1483 127.17 38.0783 126.896 37.9383C126.623 37.7983 126.42 37.6117 126.286 37.3783C126.153 37.145 126.086 36.8917 126.086 36.6183C126.086 36.2983 126.166 36.0217 126.326 35.7883C126.493 35.555 126.736 35.375 127.056 35.2483C127.376 35.115 127.77 35.0483 128.236 35.0483H129.506C129.506 34.7817 129.47 34.5617 129.396 34.3883C129.323 34.2083 129.21 34.075 129.056 33.9883C128.903 33.9017 128.706 33.8583 128.466 33.8583C128.193 33.8583 127.96 33.9217 127.766 34.0483C127.573 34.1683 127.453 34.355 127.406 34.6083H126.226C126.266 34.2483 126.386 33.9417 126.586 33.6883C126.786 33.4283 127.05 33.2283 127.376 33.0883C127.71 32.9417 128.073 32.8683 128.466 32.8683C128.94 32.8683 129.343 32.9517 129.676 33.1183C130.01 33.2783 130.263 33.5117 130.436 33.8183C130.616 34.1183 130.706 34.4817 130.706 34.9083V38.0283H129.686L129.566 37.2183C129.5 37.3517 129.413 37.475 129.306 37.5883C129.206 37.7017 129.09 37.8017 128.956 37.8883C128.823 37.9683 128.67 38.0317 128.496 38.0783C128.33 38.125 128.14 38.1483 127.926 38.1483ZM128.196 37.1983C128.39 37.1983 128.56 37.165 128.706 37.0983C128.86 37.025 128.99 36.925 129.096 36.7983C129.21 36.665 129.296 36.5183 129.356 36.3583C129.416 36.1983 129.456 36.0283 129.476 35.8483V35.8283H128.366C128.133 35.8283 127.94 35.8583 127.786 35.9183C127.633 35.9717 127.523 36.0517 127.456 36.1583C127.39 36.265 127.356 36.3883 127.356 36.5283C127.356 36.6683 127.39 36.7883 127.456 36.8883C127.523 36.9883 127.62 37.065 127.746 37.1183C127.873 37.1717 128.023 37.1983 128.196 37.1983ZM134.228 38.1483C133.762 38.1483 133.345 38.035 132.978 37.8083C132.612 37.5817 132.325 37.2683 132.118 36.8683C131.918 36.4683 131.818 36.015 131.818 35.5083C131.818 35.0017 131.922 34.5517 132.128 34.1583C132.335 33.7583 132.622 33.445 132.988 33.2183C133.362 32.985 133.782 32.8683 134.248 32.8683C134.628 32.8683 134.958 32.9417 135.238 33.0883C135.525 33.2283 135.752 33.4283 135.918 33.6883V30.8283H137.118V38.0283H136.038L135.918 37.2983C135.812 37.445 135.682 37.585 135.528 37.7183C135.375 37.845 135.192 37.9483 134.978 38.0283C134.765 38.1083 134.515 38.1483 134.228 38.1483ZM134.478 37.1083C134.765 37.1083 135.018 37.0417 135.238 36.9083C135.458 36.7683 135.628 36.5783 135.748 36.3383C135.868 36.0983 135.928 35.8217 135.928 35.5083C135.928 35.195 135.868 34.9183 135.748 34.6783C135.628 34.4383 135.458 34.2517 135.238 34.1183C135.018 33.985 134.765 33.9183 134.478 33.9183C134.205 33.9183 133.958 33.985 133.738 34.1183C133.518 34.2517 133.345 34.4383 133.218 34.6783C133.098 34.9183 133.038 35.195 133.038 35.5083C133.038 35.8217 133.098 36.0983 133.218 36.3383C133.345 36.5783 133.518 36.7683 133.738 36.9083C133.958 37.0417 134.205 37.1083 134.478 37.1083Z" fill="#757678"/>
<defs>
<clipPath id="clip0_1503_10969">
<rect width="32" height="28.625" fill="white" transform="translate(10 11.7158)"/>
</clipPath>
</defs>
</svg>
