<svg width="24" height="25" viewBox="0 0 24 25" fill="none" xmlns="http://www.w3.org/2000/svg">
<path d="M13.19 6.5H6.79C6.53 6.5 6.28 6.51 6.04 6.54C3.35 6.77 2 8.36 2 11.29V15.29C2 19.29 3.6 20.08 6.79 20.08H7.19C7.41 20.08 7.7 20.23 7.83 20.4L9.03 22C9.56 22.71 10.42 22.71 10.95 22L12.15 20.4C12.3 20.2 12.54 20.08 12.79 20.08H13.19C16.12 20.08 17.71 18.74 17.94 16.04C17.97 15.8 17.98 15.55 17.98 15.29V11.29C17.98 8.1 16.38 6.5 13.19 6.5ZM6.5 14.5C5.94 14.5 5.5 14.05 5.5 13.5C5.5 12.95 5.95 12.5 6.5 12.5C7.05 12.5 7.5 12.95 7.5 13.5C7.5 14.05 7.05 14.5 6.5 14.5ZM9.99 14.5C9.43 14.5 8.99 14.05 8.99 13.5C8.99 12.95 9.44 12.5 9.99 12.5C10.54 12.5 10.99 12.95 10.99 13.5C10.99 14.05 10.55 14.5 9.99 14.5ZM13.49 14.5C12.93 14.5 12.49 14.05 12.49 13.5C12.49 12.95 12.94 12.5 13.49 12.5C14.04 12.5 14.49 12.95 14.49 13.5C14.49 14.05 14.04 14.5 13.49 14.5Z" fill="#5B52B6"/>
<path d="M21.9802 7.29V11.29C21.9802 13.29 21.3602 14.65 20.1202 15.4C19.8202 15.58 19.4702 15.34 19.4702 14.99L19.4802 11.29C19.4802 7.29 17.1902 5 13.1902 5L7.10025 5.01C6.75025 5.01 6.51025 4.66 6.69025 4.36C7.44025 3.12 8.80025 2.5 10.7902 2.5H17.1902C20.3802 2.5 21.9802 4.1 21.9802 7.29Z" fill="#5B52B6"/>
</svg>
