<svg width="25" height="24" viewBox="0 0 25 24" fill="none" xmlns="http://www.w3.org/2000/svg">
<path d="M16.3086 12.9V17.1C16.3086 20.6 14.9086 22 11.4086 22H7.20859C3.70859 22 2.30859 20.6 2.30859 17.1V12.9C2.30859 9.4 3.70859 8 7.20859 8H11.4086C14.9086 8 16.3086 9.4 16.3086 12.9Z" fill="#5B52B6"/>
<path d="M17.4084 2H13.2084C10.1253 2 8.67934 3.09409 8.3781 5.73901C8.31508 6.29235 8.77335 6.75 9.33026 6.75H11.4084C15.6084 6.75 17.5584 8.7 17.5584 12.9V14.9781C17.5584 15.535 18.016 15.9933 18.5693 15.9303C21.2143 15.629 22.3084 14.1831 22.3084 11.1V6.9C22.3084 3.4 20.9084 2 17.4084 2Z" fill="#5B52B6"/>
</svg>
