<svg width="20" height="20" viewBox="0 0 20 20" fill="none" xmlns="http://www.w3.org/2000/svg">
<path d="M13.491 1.66699H6.50768C3.47435 1.66699 1.66602 3.47533 1.66602 6.50866V13.4837C1.66602 16.5253 3.47435 18.3337 6.50768 18.3337H13.4827C16.516 18.3337 18.3243 16.5253 18.3243 13.492V6.50866C18.3327 3.47533 16.5243 1.66699 13.491 1.66699ZM14.166 14.3753H5.83268C5.49102 14.3753 5.20768 14.092 5.20768 13.7503C5.20768 13.4087 5.49102 13.1253 5.83268 13.1253H14.166C14.5077 13.1253 14.791 13.4087 14.791 13.7503C14.791 14.092 14.5077 14.3753 14.166 14.3753ZM14.166 10.6253H5.83268C5.49102 10.6253 5.20768 10.342 5.20768 10.0003C5.20768 9.65866 5.49102 9.37533 5.83268 9.37533H14.166C14.5077 9.37533 14.791 9.65866 14.791 10.0003C14.791 10.342 14.5077 10.6253 14.166 10.6253ZM14.166 6.87533H5.83268C5.49102 6.87533 5.20768 6.59199 5.20768 6.25033C5.20768 5.90866 5.49102 5.62533 5.83268 5.62533H14.166C14.5077 5.62533 14.791 5.90866 14.791 6.25033C14.791 6.59199 14.5077 6.87533 14.166 6.87533Z" fill="white"/>
</svg>
