<svg width="40" height="40" viewBox="0 0 40 40" fill="none" xmlns="http://www.w3.org/2000/svg">
<rect x="0.155405" y="0.155405" width="39.6892" height="39.6892" rx="19.8446" stroke="#83838A" stroke-width="0.310811"/>
<g clip-path="url(#clip0_3472_68733)">
<path d="M32.3238 19.8895C32.3238 13.0233 26.7576 7.45703 19.8914 7.45703C13.0252 7.45703 7.45898 13.0233 7.45898 19.8895C7.45898 26.0948 12.0054 31.2382 17.9488 32.1709V23.4832H14.7922V19.8895H17.9488V17.1504C17.9488 14.0346 19.805 12.3135 22.6448 12.3135C24.005 12.3135 25.4277 12.5563 25.4277 12.5563V15.6158H23.8601C22.3156 15.6158 21.834 16.5742 21.834 17.5574V19.8895H25.282L24.7308 23.4832H21.834V32.1709C27.7775 31.2382 32.3238 26.0949 32.3238 19.8895Z" fill="#1877F2"/>
<path d="M24.7316 23.4842L25.2828 19.8905H21.8348V17.5584C21.8348 16.5751 22.3164 15.6168 23.8609 15.6168H25.4285V12.5573C25.4285 12.5573 24.0058 12.3145 22.6455 12.3145C19.8058 12.3145 17.9496 14.0356 17.9496 17.1514V19.8905H14.793V23.4842H17.9496V32.1719C18.5923 32.2726 19.2417 32.3231 19.8922 32.3229C20.5427 32.3231 21.1922 32.2726 21.8348 32.1719V23.4842H24.7316Z" fill="white"/>
</g>
<defs>
<clipPath id="clip0_3472_68733">
<rect width="24.8649" height="24.8649" fill="white" transform="translate(7.45898 7.45898)"/>
</clipPath>
</defs>
</svg>
