<svg width="24" height="24" viewBox="0 0 24 24" fill="none" xmlns="http://www.w3.org/2000/svg">
<path d="M17.0533 16.0401L17.0545 16.0412C18.0297 16.9214 18.3486 18.2714 17.8735 19.4988C17.3983 20.7163 16.2535 21.5 14.9395 21.5H9.04949C7.74467 21.5 6.59042 20.7156 6.11553 19.4989C5.64036 18.2714 5.95929 16.9215 6.93452 16.0412L6.93569 16.0401L10.8327 12.5H13.1563L17.0533 16.0401ZM10.1795 18.64H13.8195C14.4656 18.64 14.9995 18.1061 14.9995 17.46C14.9995 16.8187 14.4804 16.28 13.8195 16.28H10.1795C9.53335 16.28 8.99949 16.8139 8.99949 17.46C8.99949 18.1013 9.51857 18.64 10.1795 18.64Z" fill="#5B52B6" stroke="#5B52B6"/>
<path d="M6.94685 7.9599L6.94568 7.95884C5.97082 7.07888 5.6509 5.72839 6.11724 4.49972C6.59248 3.28375 7.74634 2.5 9.05065 2.5H14.9506C16.255 2.5 17.4088 3.28376 17.8841 4.49976C18.3505 5.72878 18.0304 7.08023 17.064 7.96033L13.1675 11.5H10.8438L6.94685 7.9599ZM10.1806 7.73H13.8206C14.4668 7.73 15.0006 7.19614 15.0006 6.55C15.0006 5.90866 14.4816 5.37 13.8206 5.37H10.1806C9.53451 5.37 9.00065 5.90386 9.00065 6.55C9.00065 7.19134 9.51973 7.73 10.1806 7.73Z" fill="#5B52B6" stroke="#5B52B6"/>
</svg>
