<svg width="40" height="40" viewBox="0 0 40 40" fill="none" xmlns="http://www.w3.org/2000/svg">
<rect x="0.155405" y="0.155405" width="39.6892" height="39.6892" rx="19.8446" stroke="#83838A" stroke-width="0.310811"/>
<g clip-path="url(#clip0_3472_68737)">
<path d="M13.1101 29.2222V19.6152L10.1307 16.8895L7.45898 15.377V27.5268C7.45898 28.4649 8.21901 29.2222 9.15436 29.2222H13.1101Z" fill="#4285F4"/>
<path d="M26.6738 29.2221H30.6296C31.5677 29.2221 32.325 28.462 32.325 27.5267V15.377L29.2988 17.1094L26.6738 19.6151V29.2221Z" fill="#34A853"/>
<path d="M13.1105 19.6159L12.7051 15.8622L13.1105 12.2695L19.8918 17.3556L26.6731 12.2695L27.1266 15.6682L26.6731 19.6159L19.8918 24.702L13.1105 19.6159Z" fill="#EA4335"/>
<path d="M26.6738 12.2704V19.6168L32.325 15.3785V13.1181C32.325 11.0215 29.9317 9.82638 28.2562 11.0837L26.6738 12.2704Z" fill="#FBBC04"/>
<path d="M7.45898 15.3786L10.058 17.3279L13.1101 19.6169V12.2705L11.5277 11.0837C9.84931 9.82632 7.45898 11.0216 7.45898 13.118V15.3786Z" fill="#C5221F"/>
</g>
<defs>
<clipPath id="clip0_3472_68737">
<rect width="24.8649" height="18.7458" fill="white" transform="translate(7.45898 10.5684)"/>
</clipPath>
</defs>
</svg>
