<svg width="137" height="53" viewBox="0 0 137 53" fill="none" xmlns="http://www.w3.org/2000/svg">
<rect x="0.5" y="0.52832" width="136" height="51" rx="7.5" stroke="#F1F1F1"/>
<path d="M34.0999 12.1006L39.6639 17.9006V39.9566H18.8789V40.0286H39.7349V17.9736L34.0999 12.1006Z" fill="#909090"/>
<path d="M34.0306 12.0283H18.8076V39.9563H39.6636V17.9013L34.0306 12.0283Z" fill="#F4F4F4"/>
<path d="M18.6546 13.5283H12.2646V20.3553H32.3646V13.5283H18.6546Z" fill="#7A7B7C"/>
<path d="M32.4715 20.2392H12.3945V13.4072H32.4715V20.2392Z" fill="#DD2025"/>
<path d="M19.0521 14.562H17.7451V19.362H18.7731V17.743L19.0001 17.756C19.2208 17.753 19.4394 17.7134 19.6471 17.639C19.8297 17.577 19.9976 17.4779 20.1401 17.348C20.2863 17.2254 20.4011 17.0698 20.4751 16.894C20.5764 16.6027 20.6122 16.2927 20.5801 15.986C20.5744 15.7668 20.536 15.5498 20.4661 15.342C20.4031 15.1918 20.3095 15.0564 20.1912 14.9445C20.0729 14.8326 19.9326 14.7466 19.7791 14.692C19.6468 14.643 19.5097 14.6081 19.3701 14.588C19.2646 14.5708 19.158 14.5621 19.0511 14.562M18.8621 16.856H18.7731V15.376H18.9661C19.0513 15.3699 19.1368 15.3829 19.2162 15.4143C19.2957 15.4456 19.3671 15.4944 19.4251 15.557C19.5454 15.718 19.6097 15.914 19.6081 16.115C19.6081 16.361 19.6081 16.584 19.3861 16.741C19.2262 16.8291 19.0441 16.8697 18.8621 16.856ZM22.5331 14.549C22.4221 14.549 22.3141 14.557 22.2381 14.56L22.0001 14.566H21.2201V19.366H22.1381C22.4889 19.375 22.8381 19.3156 23.1661 19.191C23.4302 19.0867 23.664 18.9179 23.8461 18.7C24.0246 18.4811 24.152 18.2253 24.2191 17.951C24.298 17.6409 24.3363 17.3219 24.3331 17.002C24.3527 16.6242 24.3235 16.2454 24.2461 15.875C24.1721 15.6027 24.0351 15.3516 23.8461 15.142C23.6979 14.9725 23.5156 14.8362 23.3111 14.742C23.1359 14.6608 22.9516 14.601 22.7621 14.564C22.6868 14.5516 22.6105 14.546 22.5341 14.547M22.3521 18.484H22.2521V15.42H22.2651C22.4713 15.3962 22.6799 15.4334 22.8651 15.527C23.0008 15.6353 23.1113 15.7718 23.1891 15.927C23.2731 16.0903 23.3215 16.2696 23.3311 16.453C23.3401 16.673 23.3311 16.853 23.3311 17.002C23.3348 17.1736 23.3238 17.3453 23.2981 17.515C23.2667 17.6891 23.2097 17.8575 23.1291 18.015C23.0381 18.1618 22.9137 18.2852 22.7661 18.375C22.6428 18.455 22.4967 18.4922 22.3501 18.481M27.4301 14.566H25.0001V19.366H26.0281V17.462H27.3281V16.57H26.0281V15.458H27.4281V14.566" fill="#464648"/>
<path d="M31.7807 30.2828C31.7807 30.2828 34.9687 29.7048 34.9687 30.7938C34.9687 31.8828 32.9937 31.4398 31.7807 30.2828ZM29.4237 30.3658C28.9171 30.4775 28.4235 30.6413 27.9507 30.8548L28.3507 29.9548C28.7507 29.0548 29.1657 27.8278 29.1657 27.8278C29.6418 28.632 30.1972 29.3864 30.8237 30.0798C30.3521 30.1501 29.8847 30.2462 29.4237 30.3678V30.3658ZM28.1617 23.8658C28.1617 22.9168 28.4687 22.6578 28.7077 22.6578C28.9467 22.6578 29.2157 22.7728 29.2247 23.5968C29.1467 24.4254 28.9732 25.2421 28.7077 26.0308C28.3427 25.3691 28.1543 24.6245 28.1607 23.8688L28.1617 23.8658ZM23.5127 34.3818C22.5347 33.7968 25.5637 31.9958 26.1127 31.9378C26.1097 31.9388 24.5367 34.9938 23.5127 34.3818ZM35.8997 30.9228C35.8897 30.8228 35.7997 29.7158 33.8297 29.7628C33.0085 29.7484 32.1877 29.8063 31.3767 29.9358C30.5906 29.1446 29.9139 28.2516 29.3647 27.2808C29.7105 26.2801 29.92 25.2374 29.9877 24.1808C29.9587 22.9808 29.6717 22.2928 28.7517 22.3028C27.8317 22.3128 27.6977 23.1178 27.8187 24.3158C27.9371 25.1209 28.1607 25.907 28.4837 26.6538C28.4837 26.6538 28.0587 27.9768 27.4967 29.2928C26.9347 30.6088 26.5507 31.2988 26.5507 31.2988C25.5733 31.6166 24.6532 32.0893 23.8257 32.6988C23.0017 33.4658 22.6667 34.0548 23.1007 34.6438C23.4747 35.1518 24.7837 35.2668 25.9537 33.7338C26.5743 32.9413 27.1422 32.1088 27.6537 31.2418C27.6537 31.2418 29.4377 30.7528 29.9927 30.6188C30.5477 30.4848 31.2187 30.3788 31.2187 30.3788C31.2187 30.3788 32.8477 32.0178 34.4187 31.9598C35.9897 31.9018 35.9137 31.0208 35.9037 30.9248" fill="#DD2025"/>
<path d="M33.9541 12.1055V17.9785H39.5871L33.9541 12.1055Z" fill="#909090"/>
<path d="M34.0312 12.0283V17.9013H39.6642L34.0312 12.0283Z" fill="#F4F4F4"/>
<path d="M18.975 14.4848H17.668V19.2848H18.7V17.6668L18.928 17.6798C19.1486 17.6768 19.3672 17.6373 19.575 17.5628C19.7576 17.5008 19.9254 17.4018 20.068 17.2718C20.213 17.149 20.3268 16.9933 20.4 16.8178C20.5012 16.5266 20.5371 16.2166 20.505 15.9098C20.4993 15.6907 20.4608 15.4736 20.391 15.2658C20.328 15.1157 20.2344 14.9803 20.1161 14.8683C19.9978 14.7564 19.8574 14.6704 19.704 14.6158C19.5711 14.5664 19.4333 14.5312 19.293 14.5108C19.1875 14.4937 19.0808 14.485 18.974 14.4848M18.785 16.7788H18.696V15.2988H18.89C18.9751 15.2927 19.0606 15.3058 19.1401 15.3371C19.2195 15.3684 19.2909 15.4172 19.349 15.4798C19.4693 15.6409 19.5336 15.8369 19.532 16.0378C19.532 16.2838 19.532 16.5068 19.31 16.6638C19.1501 16.7519 18.968 16.7915 18.786 16.7778M22.456 14.4718C22.345 14.4718 22.237 14.4798 22.161 14.4828L21.926 14.4888H21.146V19.2888H22.064C22.4148 19.2979 22.7639 19.2384 23.092 19.1138C23.3561 19.0095 23.5899 18.8407 23.772 18.6228C23.9504 18.404 24.0778 18.1481 24.145 17.8738C24.2238 17.5638 24.2622 17.2448 24.259 16.9248C24.2785 16.547 24.2493 16.1682 24.172 15.7978C24.0979 15.5255 23.9609 15.2744 23.772 15.0648C23.6238 14.8954 23.4415 14.7591 23.237 14.6648C23.0618 14.5836 22.8775 14.5239 22.688 14.4868C22.6126 14.4745 22.5363 14.4688 22.46 14.4698M22.278 18.4068H22.178V15.3428H22.191C22.3971 15.319 22.6058 15.3562 22.791 15.4498C22.9266 15.5582 23.0372 15.6946 23.115 15.8498C23.1989 16.0132 23.2473 16.1925 23.257 16.3758C23.266 16.5958 23.257 16.7758 23.257 16.9248C23.2607 17.0965 23.2496 17.2681 23.224 17.4378C23.1925 17.6119 23.1356 17.7804 23.055 17.9378C22.9639 18.0847 22.8396 18.208 22.692 18.2978C22.5687 18.3779 22.4225 18.4151 22.276 18.4038M27.353 14.4888H24.923V19.2888H25.951V17.3848H27.251V16.4928H25.951V15.3808H27.351V14.4888" fill="white"/>
<path d="M53.76 21.1483C53.1 21.1483 52.52 20.9983 52.02 20.6983C51.5267 20.3983 51.1433 19.9817 50.87 19.4483C50.5967 18.9083 50.46 18.2783 50.46 17.5583C50.46 16.845 50.6 16.215 50.88 15.6683C51.16 15.115 51.56 14.685 52.08 14.3783C52.6067 14.065 53.23 13.9083 53.95 13.9083C54.7633 13.9083 55.4367 14.105 55.97 14.4983C56.51 14.885 56.86 15.425 57.02 16.1183H55.67C55.57 15.7717 55.3733 15.5017 55.08 15.3083C54.7867 15.115 54.4067 15.0183 53.94 15.0183C53.4667 15.0183 53.06 15.1217 52.72 15.3283C52.3867 15.5283 52.13 15.8217 51.95 16.2083C51.7767 16.5883 51.69 17.0417 51.69 17.5683C51.69 18.095 51.7767 18.5483 51.95 18.9283C52.13 19.3083 52.3833 19.5983 52.71 19.7983C53.0367 19.9917 53.42 20.0883 53.86 20.0883C54.5133 20.0883 55.0067 19.905 55.34 19.5383C55.6733 19.1717 55.87 18.695 55.93 18.1083H54.12V17.1983H57.14V21.0283H56.04L55.94 20.0683C55.7867 20.295 55.61 20.4917 55.41 20.6583C55.21 20.8183 54.9733 20.9417 54.7 21.0283C54.4333 21.1083 54.12 21.1483 53.76 21.1483ZM60.2646 21.1483C59.8579 21.1483 59.5079 21.0683 59.2146 20.9083C58.9279 20.7417 58.7079 20.495 58.5546 20.1683C58.4013 19.835 58.3246 19.425 58.3246 18.9383V15.9883H59.5246V18.8183C59.5246 19.2517 59.6146 19.5817 59.7946 19.8083C59.9813 20.0283 60.2613 20.1383 60.6346 20.1383C60.8746 20.1383 61.0879 20.0817 61.2746 19.9683C61.4679 19.855 61.6179 19.6917 61.7246 19.4783C61.8379 19.2583 61.8946 18.9917 61.8946 18.6783V15.9883H63.0946V21.0283H62.0346L61.9446 20.1883C61.7913 20.4817 61.5679 20.715 61.2746 20.8883C60.9879 21.0617 60.6513 21.1483 60.2646 21.1483ZM64.4798 21.0283V15.9883H65.6798V21.0283H64.4798ZM65.0798 15.1883C64.8598 15.1883 64.6764 15.1217 64.5298 14.9883C64.3898 14.8483 64.3198 14.6783 64.3198 14.4783C64.3198 14.2717 64.3898 14.105 64.5298 13.9783C64.6764 13.845 64.8598 13.7783 65.0798 13.7783C65.2998 13.7783 65.4798 13.845 65.6198 13.9783C65.7664 14.105 65.8398 14.2717 65.8398 14.4783C65.8398 14.6783 65.7664 14.8483 65.6198 14.9883C65.4798 15.1217 65.2998 15.1883 65.0798 15.1883ZM69.3065 21.1483C68.8398 21.1483 68.4232 21.035 68.0565 20.8083C67.6898 20.5817 67.4032 20.2683 67.1965 19.8683C66.9965 19.4683 66.8965 19.015 66.8965 18.5083C66.8965 18.0017 66.9998 17.5517 67.2065 17.1583C67.4132 16.7583 67.6998 16.445 68.0665 16.2183C68.4398 15.985 68.8598 15.8683 69.3265 15.8683C69.7065 15.8683 70.0365 15.9417 70.3165 16.0883C70.6032 16.2283 70.8298 16.4283 70.9965 16.6883V13.8283H72.1965V21.0283H71.1165L70.9965 20.2983C70.8898 20.445 70.7598 20.585 70.6065 20.7183C70.4532 20.845 70.2698 20.9483 70.0565 21.0283C69.8432 21.1083 69.5932 21.1483 69.3065 21.1483ZM69.5565 20.1083C69.8432 20.1083 70.0965 20.0417 70.3165 19.9083C70.5365 19.7683 70.7065 19.5783 70.8265 19.3383C70.9465 19.0983 71.0065 18.8217 71.0065 18.5083C71.0065 18.195 70.9465 17.9183 70.8265 17.6783C70.7065 17.4383 70.5365 17.2517 70.3165 17.1183C70.0965 16.985 69.8432 16.9183 69.5565 16.9183C69.2832 16.9183 69.0365 16.985 68.8165 17.1183C68.5965 17.2517 68.4232 17.4383 68.2965 17.6783C68.1765 17.9183 68.1165 18.195 68.1165 18.5083C68.1165 18.8217 68.1765 19.0983 68.2965 19.3383C68.4232 19.5783 68.5965 19.7683 68.8165 19.9083C69.0365 20.0417 69.2832 20.1083 69.5565 20.1083ZM75.8913 21.1483C75.3913 21.1483 74.9513 21.0417 74.5713 20.8283C74.1913 20.6083 73.8947 20.3017 73.6813 19.9083C73.468 19.515 73.3613 19.0617 73.3613 18.5483C73.3613 18.015 73.4647 17.5483 73.6713 17.1483C73.8847 16.7483 74.1813 16.435 74.5613 16.2083C74.948 15.9817 75.3947 15.8683 75.9013 15.8683C76.3947 15.8683 76.8247 15.9783 77.1913 16.1983C77.558 16.4183 77.8413 16.715 78.0413 17.0883C78.2413 17.455 78.3413 17.8683 78.3413 18.3283C78.3413 18.395 78.3413 18.4683 78.3413 18.5483C78.3413 18.6283 78.3347 18.7117 78.3213 18.7983H74.2213V18.0283H77.1313C77.118 17.6617 76.9947 17.375 76.7613 17.1683C76.528 16.955 76.238 16.8483 75.8913 16.8483C75.6447 16.8483 75.418 16.905 75.2113 17.0183C75.0047 17.1317 74.8413 17.3017 74.7213 17.5283C74.6013 17.7483 74.5413 18.0283 74.5413 18.3683V18.6583C74.5413 18.9717 74.598 19.2417 74.7113 19.4683C74.8313 19.695 74.9913 19.8683 75.1913 19.9883C75.398 20.1017 75.628 20.1583 75.8813 20.1583C76.1613 20.1583 76.3913 20.0983 76.5713 19.9783C76.758 19.8583 76.8947 19.6983 76.9813 19.4983H78.2013C78.108 19.8117 77.9547 20.095 77.7413 20.3483C77.528 20.595 77.2647 20.7917 76.9513 20.9383C76.638 21.0783 76.2847 21.1483 75.8913 21.1483ZM79.4493 21.0283V13.8283H80.6493V21.0283H79.4493ZM82.0384 21.0283V15.9883H83.2384V21.0283H82.0384ZM82.6384 15.1883C82.4184 15.1883 82.235 15.1217 82.0884 14.9883C81.9484 14.8483 81.8784 14.6783 81.8784 14.4783C81.8784 14.2717 81.9484 14.105 82.0884 13.9783C82.235 13.845 82.4184 13.7783 82.6384 13.7783C82.8584 13.7783 83.0384 13.845 83.1784 13.9783C83.325 14.105 83.3984 14.2717 83.3984 14.4783C83.3984 14.6783 83.325 14.8483 83.1784 14.9883C83.0384 15.1217 82.8584 15.1883 82.6384 15.1883ZM84.6251 21.0283V15.9883H85.6851L85.7751 16.8283C85.9284 16.535 86.1484 16.3017 86.4351 16.1283C86.7217 15.955 87.0617 15.8683 87.4551 15.8683C87.8617 15.8683 88.2084 15.955 88.4951 16.1283C88.7817 16.295 89.0017 16.5417 89.1551 16.8683C89.3151 17.195 89.3951 17.6017 89.3951 18.0883V21.0283H88.1951V18.1983C88.1951 17.7783 88.1017 17.455 87.9151 17.2283C87.7284 17.0017 87.4517 16.8883 87.0851 16.8883C86.8451 16.8883 86.6284 16.945 86.4351 17.0583C86.2484 17.1717 86.0984 17.3383 85.9851 17.5583C85.8784 17.7717 85.8251 18.0317 85.8251 18.3383V21.0283H84.6251ZM93.0202 21.1483C92.5202 21.1483 92.0802 21.0417 91.7002 20.8283C91.3202 20.6083 91.0236 20.3017 90.8102 19.9083C90.5969 19.515 90.4902 19.0617 90.4902 18.5483C90.4902 18.015 90.5936 17.5483 90.8002 17.1483C91.0136 16.7483 91.3102 16.435 91.6902 16.2083C92.0769 15.9817 92.5236 15.8683 93.0302 15.8683C93.5236 15.8683 93.9536 15.9783 94.3202 16.1983C94.6869 16.4183 94.9702 16.715 95.1702 17.0883C95.3702 17.455 95.4702 17.8683 95.4702 18.3283C95.4702 18.395 95.4702 18.4683 95.4702 18.5483C95.4702 18.6283 95.4636 18.7117 95.4502 18.7983H91.3502V18.0283H94.2602C94.2469 17.6617 94.1236 17.375 93.8902 17.1683C93.6569 16.955 93.3669 16.8483 93.0202 16.8483C92.7736 16.8483 92.5469 16.905 92.3402 17.0183C92.1336 17.1317 91.9702 17.3017 91.8502 17.5283C91.7302 17.7483 91.6702 18.0283 91.6702 18.3683V18.6583C91.6702 18.9717 91.7269 19.2417 91.8402 19.4683C91.9602 19.695 92.1202 19.8683 92.3202 19.9883C92.5269 20.1017 92.7569 20.1583 93.0102 20.1583C93.2902 20.1583 93.5202 20.0983 93.7002 19.9783C93.8869 19.8583 94.0236 19.6983 94.1102 19.4983H95.3302C95.2369 19.8117 95.0836 20.095 94.8702 20.3483C94.6569 20.595 94.3936 20.7917 94.0802 20.9383C93.7669 21.0783 93.4136 21.1483 93.0202 21.1483ZM98.5882 21.1483C98.1415 21.1483 97.7515 21.0783 97.4182 20.9383C97.0915 20.7917 96.8315 20.5917 96.6382 20.3383C96.4515 20.0783 96.3415 19.7817 96.3082 19.4483H97.5082C97.5415 19.5883 97.6015 19.7183 97.6882 19.8383C97.7749 19.9517 97.8915 20.0417 98.0382 20.1083C98.1915 20.175 98.3715 20.2083 98.5782 20.2083C98.7782 20.2083 98.9415 20.1817 99.0682 20.1283C99.1949 20.0683 99.2882 19.9917 99.3482 19.8983C99.4082 19.805 99.4382 19.705 99.4382 19.5983C99.4382 19.4383 99.3949 19.315 99.3082 19.2283C99.2215 19.1417 99.0949 19.075 98.9282 19.0283C98.7682 18.975 98.5749 18.925 98.3482 18.8783C98.1082 18.8317 97.8749 18.775 97.6482 18.7083C97.4282 18.635 97.2282 18.545 97.0482 18.4383C96.8749 18.3317 96.7349 18.195 96.6282 18.0283C96.5282 17.8617 96.4782 17.6583 96.4782 17.4183C96.4782 17.125 96.5549 16.8617 96.7082 16.6283C96.8682 16.395 97.0949 16.2117 97.3882 16.0783C97.6882 15.9383 98.0449 15.8683 98.4582 15.8683C99.0449 15.8683 99.5115 16.005 99.8582 16.2783C100.212 16.545 100.418 16.9217 100.478 17.4083H99.3382C99.3049 17.2217 99.2115 17.0783 99.0582 16.9783C98.9049 16.8717 98.7015 16.8183 98.4482 16.8183C98.1882 16.8183 97.9882 16.8683 97.8482 16.9683C97.7149 17.0617 97.6482 17.1883 97.6482 17.3483C97.6482 17.4483 97.6882 17.5417 97.7682 17.6283C97.8549 17.7083 97.9782 17.7783 98.1382 17.8383C98.2982 17.8917 98.4949 17.945 98.7282 17.9983C99.1015 18.0717 99.4315 18.1583 99.7182 18.2583C100.005 18.3583 100.232 18.505 100.398 18.6983C100.565 18.8917 100.648 19.165 100.648 19.5183C100.655 19.8383 100.572 20.1217 100.398 20.3683C100.232 20.615 99.9949 20.8083 99.6882 20.9483C99.3815 21.0817 99.0149 21.1483 98.5882 21.1483ZM102.333 21.0783C102.106 21.0783 101.923 21.0083 101.783 20.8683C101.643 20.7283 101.573 20.5617 101.573 20.3683C101.573 20.1617 101.643 19.9883 101.783 19.8483C101.923 19.7083 102.106 19.6383 102.333 19.6383C102.553 19.6383 102.733 19.7083 102.873 19.8483C103.013 19.9883 103.083 20.1617 103.083 20.3683C103.083 20.5617 103.013 20.7283 102.873 20.8683C102.733 21.0083 102.553 21.0783 102.333 21.0783ZM104.176 23.2283V15.9883H105.246L105.376 16.7183C105.483 16.5717 105.609 16.435 105.756 16.3083C105.909 16.175 106.093 16.0683 106.306 15.9883C106.526 15.9083 106.776 15.8683 107.056 15.8683C107.529 15.8683 107.946 15.985 108.306 16.2183C108.673 16.4517 108.959 16.7683 109.166 17.1683C109.373 17.5617 109.476 18.0117 109.476 18.5183C109.476 19.025 109.369 19.4783 109.156 19.8783C108.949 20.2717 108.663 20.5817 108.296 20.8083C107.936 21.035 107.523 21.1483 107.056 21.1483C106.676 21.1483 106.343 21.0783 106.056 20.9383C105.776 20.7917 105.549 20.585 105.376 20.3183V23.2283H104.176ZM106.806 20.1083C107.086 20.1083 107.336 20.0417 107.556 19.9083C107.776 19.775 107.946 19.5883 108.066 19.3483C108.193 19.1083 108.256 18.8317 108.256 18.5183C108.256 18.1983 108.193 17.9183 108.066 17.6783C107.946 17.4383 107.776 17.2517 107.556 17.1183C107.336 16.985 107.086 16.9183 106.806 16.9183C106.519 16.9183 106.266 16.985 106.046 17.1183C105.833 17.2517 105.663 17.4383 105.536 17.6783C105.416 17.9183 105.356 18.195 105.356 18.5083C105.356 18.8283 105.416 19.1083 105.536 19.3483C105.663 19.5817 105.833 19.7683 106.046 19.9083C106.266 20.0417 106.519 20.1083 106.806 20.1083ZM112.881 21.1483C112.414 21.1483 111.997 21.035 111.631 20.8083C111.264 20.5817 110.977 20.2683 110.771 19.8683C110.571 19.4683 110.471 19.015 110.471 18.5083C110.471 18.0017 110.574 17.5517 110.781 17.1583C110.987 16.7583 111.274 16.445 111.641 16.2183C112.014 15.985 112.434 15.8683 112.901 15.8683C113.281 15.8683 113.611 15.9417 113.891 16.0883C114.177 16.2283 114.404 16.4283 114.571 16.6883V13.8283H115.771V21.0283H114.691L114.571 20.2983C114.464 20.445 114.334 20.585 114.181 20.7183C114.027 20.845 113.844 20.9483 113.631 21.0283C113.417 21.1083 113.167 21.1483 112.881 21.1483ZM113.131 20.1083C113.417 20.1083 113.671 20.0417 113.891 19.9083C114.111 19.7683 114.281 19.5783 114.401 19.3383C114.521 19.0983 114.581 18.8217 114.581 18.5083C114.581 18.195 114.521 17.9183 114.401 17.6783C114.281 17.4383 114.111 17.2517 113.891 17.1183C113.671 16.985 113.417 16.9183 113.131 16.9183C112.857 16.9183 112.611 16.985 112.391 17.1183C112.171 17.2517 111.997 17.4383 111.871 17.6783C111.751 17.9183 111.691 18.195 111.691 18.5083C111.691 18.8217 111.751 19.0983 111.871 19.3383C111.997 19.5783 112.171 19.7683 112.391 19.9083C112.611 20.0417 112.857 20.1083 113.131 20.1083ZM117.356 21.0283V15.4383C117.356 15.0517 117.419 14.7417 117.546 14.5083C117.679 14.2683 117.869 14.095 118.116 13.9883C118.362 13.8817 118.656 13.8283 118.996 13.8283H119.596V14.8483H119.176C118.956 14.8483 118.796 14.895 118.696 14.9883C118.602 15.075 118.556 15.2283 118.556 15.4483V21.0283H117.356ZM116.636 16.9983V15.9883H119.696V16.9983H116.636Z" fill="#101828"/>
<path d="M50.71 38.0283V31.0283H53.23C53.79 31.0283 54.2533 31.125 54.62 31.3183C54.9867 31.505 55.26 31.7583 55.44 32.0783C55.62 32.3983 55.71 32.765 55.71 33.1783C55.71 33.565 55.6233 33.9217 55.45 34.2483C55.2767 34.5683 55.0067 34.8283 54.64 35.0283C54.2733 35.2217 53.8033 35.3183 53.23 35.3183H51.91V38.0283H50.71ZM51.91 34.3383H53.16C53.6333 34.3383 53.9733 34.235 54.18 34.0283C54.3867 33.815 54.49 33.5317 54.49 33.1783C54.49 32.8117 54.3867 32.525 54.18 32.3183C53.9733 32.1117 53.6333 32.0083 53.16 32.0083H51.91V34.3383ZM56.7452 38.0283V31.0283H59.0052C59.8185 31.0283 60.4885 31.1717 61.0152 31.4583C61.5485 31.745 61.9418 32.1517 62.1952 32.6783C62.4552 33.1983 62.5852 33.8183 62.5852 34.5383C62.5852 35.245 62.4552 35.8617 62.1952 36.3883C61.9418 36.9083 61.5485 37.3117 61.0152 37.5983C60.4885 37.885 59.8185 38.0283 59.0052 38.0283H56.7452ZM57.9452 37.0083H58.9452C59.5518 37.0083 60.0285 36.9117 60.3752 36.7183C60.7285 36.5183 60.9785 36.235 61.1252 35.8683C61.2785 35.495 61.3552 35.0517 61.3552 34.5383C61.3552 34.0183 61.2785 33.575 61.1252 33.2083C60.9785 32.835 60.7285 32.5483 60.3752 32.3483C60.0285 32.1417 59.5518 32.0383 58.9452 32.0383H57.9452V37.0083ZM63.7569 38.0283V31.0283H68.2269V31.9983H64.9569V34.0483H67.6269V34.9983H64.9569V38.0283H63.7569ZM71.7363 35.5783V34.5783H75.8763V35.5783H71.7363ZM79.792 38.0283V31.0283H82.052C82.8654 31.0283 83.5354 31.1717 84.062 31.4583C84.5954 31.745 84.9887 32.1517 85.242 32.6783C85.502 33.1983 85.632 33.8183 85.632 34.5383C85.632 35.245 85.502 35.8617 85.242 36.3883C84.9887 36.9083 84.5954 37.3117 84.062 37.5983C83.5354 37.885 82.8654 38.0283 82.052 38.0283H79.792ZM80.992 37.0083H81.992C82.5987 37.0083 83.0754 36.9117 83.422 36.7183C83.7754 36.5183 84.0254 36.235 84.172 35.8683C84.3254 35.495 84.402 35.0517 84.402 34.5383C84.402 34.0183 84.3254 33.575 84.172 33.2083C84.0254 32.835 83.7754 32.5483 83.422 32.3483C83.0754 32.1417 82.5987 32.0383 81.992 32.0383H80.992V37.0083ZM89.1138 38.1483C88.6338 38.1483 88.2004 38.0383 87.8138 37.8183C87.4338 37.5917 87.1338 37.2817 86.9138 36.8883C86.7004 36.4883 86.5938 36.0317 86.5938 35.5183C86.5938 34.9917 86.7038 34.5317 86.9238 34.1383C87.1438 33.7383 87.4438 33.4283 87.8238 33.2083C88.2104 32.9817 88.6438 32.8683 89.1238 32.8683C89.6038 32.8683 90.0338 32.9817 90.4138 33.2083C90.8004 33.4283 91.1004 33.735 91.3138 34.1283C91.5338 34.5217 91.6438 34.9817 91.6438 35.5083C91.6438 36.035 91.5338 36.495 91.3138 36.8883C91.0938 37.2817 90.7904 37.5917 90.4038 37.8183C90.0238 38.0383 89.5938 38.1483 89.1138 38.1483ZM89.1138 37.1183C89.3538 37.1183 89.5704 37.0583 89.7638 36.9383C89.9638 36.8183 90.1238 36.6383 90.2438 36.3983C90.3638 36.1583 90.4238 35.8617 90.4238 35.5083C90.4238 35.155 90.3638 34.8617 90.2438 34.6283C90.1304 34.3883 89.9738 34.2083 89.7738 34.0883C89.5804 33.9683 89.3638 33.9083 89.1238 33.9083C88.8904 33.9083 88.6738 33.9683 88.4738 34.0883C88.2738 34.2083 88.1138 34.3883 87.9938 34.6283C87.8738 34.8617 87.8138 35.155 87.8138 35.5083C87.8138 35.8617 87.8738 36.1583 87.9938 36.3983C88.1138 36.6383 88.2704 36.8183 88.4638 36.9383C88.6638 37.0583 88.8804 37.1183 89.1138 37.1183ZM93.6427 38.0283L92.1627 32.9883H93.3527L94.3827 37.1283L94.1627 37.1183L95.3127 32.9883H96.6527L97.8127 37.1183H97.5927L98.6227 32.9883H99.8127L98.3327 38.0283H97.0927L95.8627 33.7583H96.1127L94.8827 38.0283H93.6427ZM100.67 38.0283V32.9883H101.73L101.82 33.8283C101.973 33.535 102.193 33.3017 102.48 33.1283C102.767 32.955 103.107 32.8683 103.5 32.8683C103.907 32.8683 104.253 32.955 104.54 33.1283C104.827 33.295 105.047 33.5417 105.2 33.8683C105.36 34.195 105.44 34.6017 105.44 35.0883V38.0283H104.24V35.1983C104.24 34.7783 104.147 34.455 103.96 34.2283C103.773 34.0017 103.497 33.8883 103.13 33.8883C102.89 33.8883 102.673 33.945 102.48 34.0583C102.293 34.1717 102.143 34.3383 102.03 34.5583C101.923 34.7717 101.87 35.0317 101.87 35.3383V38.0283H100.67ZM106.705 38.0283V30.8283H107.905V38.0283H106.705ZM111.594 38.1483C111.114 38.1483 110.681 38.0383 110.294 37.8183C109.914 37.5917 109.614 37.2817 109.394 36.8883C109.181 36.4883 109.074 36.0317 109.074 35.5183C109.074 34.9917 109.184 34.5317 109.404 34.1383C109.624 33.7383 109.924 33.4283 110.304 33.2083C110.691 32.9817 111.124 32.8683 111.604 32.8683C112.084 32.8683 112.514 32.9817 112.894 33.2083C113.281 33.4283 113.581 33.735 113.794 34.1283C114.014 34.5217 114.124 34.9817 114.124 35.5083C114.124 36.035 114.014 36.495 113.794 36.8883C113.574 37.2817 113.271 37.5917 112.884 37.8183C112.504 38.0383 112.074 38.1483 111.594 38.1483ZM111.594 37.1183C111.834 37.1183 112.051 37.0583 112.244 36.9383C112.444 36.8183 112.604 36.6383 112.724 36.3983C112.844 36.1583 112.904 35.8617 112.904 35.5083C112.904 35.155 112.844 34.8617 112.724 34.6283C112.611 34.3883 112.454 34.2083 112.254 34.0883C112.061 33.9683 111.844 33.9083 111.604 33.9083C111.371 33.9083 111.154 33.9683 110.954 34.0883C110.754 34.2083 110.594 34.3883 110.474 34.6283C110.354 34.8617 110.294 35.155 110.294 35.5083C110.294 35.8617 110.354 36.1583 110.474 36.3983C110.594 36.6383 110.751 36.8183 110.944 36.9383C111.144 37.0583 111.361 37.1183 111.594 37.1183ZM116.979 38.1483C116.566 38.1483 116.222 38.0783 115.949 37.9383C115.676 37.7983 115.472 37.6117 115.339 37.3783C115.206 37.145 115.139 36.8917 115.139 36.6183C115.139 36.2983 115.219 36.0217 115.379 35.7883C115.546 35.555 115.789 35.375 116.109 35.2483C116.429 35.115 116.822 35.0483 117.289 35.0483H118.559C118.559 34.7817 118.522 34.5617 118.449 34.3883C118.376 34.2083 118.262 34.075 118.109 33.9883C117.956 33.9017 117.759 33.8583 117.519 33.8583C117.246 33.8583 117.012 33.9217 116.819 34.0483C116.626 34.1683 116.506 34.355 116.459 34.6083H115.279C115.319 34.2483 115.439 33.9417 115.639 33.6883C115.839 33.4283 116.102 33.2283 116.429 33.0883C116.762 32.9417 117.126 32.8683 117.519 32.8683C117.992 32.8683 118.396 32.9517 118.729 33.1183C119.062 33.2783 119.316 33.5117 119.489 33.8183C119.669 34.1183 119.759 34.4817 119.759 34.9083V38.0283H118.739L118.619 37.2183C118.552 37.3517 118.466 37.475 118.359 37.5883C118.259 37.7017 118.142 37.8017 118.009 37.8883C117.876 37.9683 117.722 38.0317 117.549 38.0783C117.382 38.125 117.192 38.1483 116.979 38.1483ZM117.249 37.1983C117.442 37.1983 117.612 37.165 117.759 37.0983C117.912 37.025 118.042 36.925 118.149 36.7983C118.262 36.665 118.349 36.5183 118.409 36.3583C118.469 36.1983 118.509 36.0283 118.529 35.8483V35.8283H117.419C117.186 35.8283 116.992 35.8583 116.839 35.9183C116.686 35.9717 116.576 36.0517 116.509 36.1583C116.442 36.265 116.409 36.3883 116.409 36.5283C116.409 36.6683 116.442 36.7883 116.509 36.8883C116.576 36.9883 116.672 37.065 116.799 37.1183C116.926 37.1717 117.076 37.1983 117.249 37.1983ZM123.281 38.1483C122.814 38.1483 122.398 38.035 122.031 37.8083C121.664 37.5817 121.378 37.2683 121.171 36.8683C120.971 36.4683 120.871 36.015 120.871 35.5083C120.871 35.0017 120.974 34.5517 121.181 34.1583C121.388 33.7583 121.674 33.445 122.041 33.2183C122.414 32.985 122.834 32.8683 123.301 32.8683C123.681 32.8683 124.011 32.9417 124.291 33.0883C124.578 33.2283 124.804 33.4283 124.971 33.6883V30.8283H126.171V38.0283H125.091L124.971 37.2983C124.864 37.445 124.734 37.585 124.581 37.7183C124.428 37.845 124.244 37.9483 124.031 38.0283C123.818 38.1083 123.568 38.1483 123.281 38.1483ZM123.531 37.1083C123.818 37.1083 124.071 37.0417 124.291 36.9083C124.511 36.7683 124.681 36.5783 124.801 36.3383C124.921 36.0983 124.981 35.8217 124.981 35.5083C124.981 35.195 124.921 34.9183 124.801 34.6783C124.681 34.4383 124.511 34.2517 124.291 34.1183C124.071 33.985 123.818 33.9183 123.531 33.9183C123.258 33.9183 123.011 33.985 122.791 34.1183C122.571 34.2517 122.398 34.4383 122.271 34.6783C122.151 34.9183 122.091 35.195 122.091 35.5083C122.091 35.8217 122.151 36.0983 122.271 36.3383C122.398 36.5783 122.571 36.7683 122.791 36.9083C123.011 37.0417 123.258 37.1083 123.531 37.1083Z" fill="#757678"/>
</svg>
