<svg width="24" height="24" viewBox="0 0 24 24" fill="none" xmlns="http://www.w3.org/2000/svg">
<path d="M9.57293 8.39099L9.5729 8.39096L9.57031 8.39338V2.5H14.4303V8.4C14.4303 8.40016 14.4303 8.40031 14.4303 8.40046C14.4294 8.4008 14.4286 8.401 14.428 8.40112C14.4276 8.40083 14.4272 8.40048 14.4267 8.40006L12.6811 6.7941C12.2993 6.43551 11.7022 6.4353 11.3202 6.79347L9.57293 8.39099Z" fill="#7B91B0" stroke="#7B91B0"/>
<path d="M16.9303 2.56167C16.9308 2.56075 16.9313 2.55976 16.932 2.55877C18.217 2.72225 19.0861 3.22772 19.6433 3.95396C20.2103 4.69307 20.5 5.72063 20.5 7.00086V17.0009C20.5 18.4242 20.1441 19.534 19.4461 20.2856C18.7543 21.0306 17.6547 21.5009 16 21.5009H8C6.3453 21.5009 5.24565 21.0306 4.5539 20.2856C3.85591 19.534 3.5 18.4242 3.5 17.0009V7.00086C3.5 5.72063 3.78965 4.69307 4.3567 3.95396C4.91388 3.22772 5.783 2.72225 7.06804 2.55877C7.06869 2.55976 7.06924 2.56075 7.06966 2.56167C7.06981 2.562 7.06992 2.56227 7.07 2.56248V8.58086C7.07 9.53995 7.63779 10.4084 8.51754 10.798L8.51863 10.7985C8.83586 10.9381 9.1649 11.0009 9.49 11.0009C10.0781 11.0009 10.6723 10.7885 11.1307 10.3568L11.9955 9.56164C11.9974 9.55995 11.9991 9.55875 12.0005 9.5579L12.0016 9.55891L12.8698 10.3573C12.8701 10.3576 12.8705 10.3579 12.8709 10.3583C13.5796 11.0155 14.6005 11.1761 15.477 10.8004L15.477 10.8005L15.4825 10.798C16.3622 10.4084 16.93 9.53995 16.93 8.58086V2.56248C16.9301 2.56227 16.9302 2.562 16.9303 2.56167ZM9 19.2509H17.5C18.1861 19.2509 18.75 18.687 18.75 18.0009C18.75 17.3147 18.1861 16.7509 17.5 16.7509H9C8.31386 16.7509 7.75 17.3147 7.75 18.0009C7.75 18.687 8.31386 19.2509 9 19.2509ZM13.25 15.2509H17.5C18.1861 15.2509 18.75 14.687 18.75 14.0009C18.75 13.3147 18.1861 12.7509 17.5 12.7509H13.25C12.5639 12.7509 12 13.3147 12 14.0009C12 14.687 12.5639 15.2509 13.25 15.2509Z" fill="#7B91B0" stroke="#7B91B0"/>
</svg>
