<svg width="22" height="22" viewBox="0 0 22 22" fill="none" xmlns="http://www.w3.org/2000/svg">
<path d="M4.55717 9.3042C3.57182 9.3042 2.76562 10.1104 2.76562 11.0957C2.76562 12.0811 3.57182 12.8873 4.55717 12.8873C5.54253 12.8873 6.34872 12.0811 6.34872 11.0957C6.34872 10.1104 5.54253 9.3042 4.55717 9.3042Z" fill="#5B52B6" stroke="#5B52B6" stroke-width="1.34366"/>
<path d="M17.0982 9.3042C16.1128 9.3042 15.3066 10.1104 15.3066 11.0957C15.3066 12.0811 16.1128 12.8873 17.0982 12.8873C18.0835 12.8873 18.8897 12.0811 18.8897 11.0957C18.8897 10.1104 18.0835 9.3042 17.0982 9.3042Z" fill="#5B52B6" stroke="#5B52B6" stroke-width="1.34366"/>
<path d="M10.8267 9.3042C9.84135 9.3042 9.03516 10.1104 9.03516 11.0957C9.03516 12.0811 9.84135 12.8873 10.8267 12.8873C11.8121 12.8873 12.6183 12.0811 12.6183 11.0957C12.6183 10.1104 11.8121 9.3042 10.8267 9.3042Z" stroke="#5B52B6" stroke-width="1.34366"/>
</svg>
