<svg width="24" height="25" viewBox="0 0 24 25" fill="none" xmlns="http://www.w3.org/2000/svg">
<path d="M5.40777 12.9284L5.4078 12.9284L5.41073 12.9234C5.5609 12.6668 5.69 12.3214 5.78129 11.9897C5.87247 11.6585 5.93923 11.293 5.93923 10.9908V9.13078C5.93923 5.77841 8.66404 3.0604 12.0199 3.05078C15.363 3.05115 18.0892 5.77666 18.0892 9.13078V11.0008C18.0892 11.3032 18.156 11.6691 18.2489 12.0016C18.3416 12.3333 18.4739 12.6807 18.6315 12.9397C18.6317 12.9401 18.632 12.9406 18.6323 12.9411L19.7594 14.8162C19.7596 14.8165 19.7598 14.8168 19.76 14.8172C20.0936 15.3792 20.1565 16.0403 19.9313 16.6446C19.7037 17.2454 19.2261 17.7151 18.6001 17.9268C17.5439 18.2788 16.4606 18.5518 15.3699 18.7271L15.3699 18.727L15.3598 18.7288C15.2459 18.7496 15.158 18.7652 15.074 18.7728L15.0554 18.7745L15.037 18.7776C14.8727 18.805 14.7062 18.8236 14.524 18.8438L14.524 18.8437L14.5117 18.8454C14.3059 18.8734 14.0883 18.8925 13.8559 18.9127L13.8559 18.9126L13.8511 18.9131C13.2474 18.9715 12.6335 19.0008 12.0192 19.0008C11.3948 19.0008 10.7706 18.9715 10.1566 18.913L10.1566 18.9129L10.1462 18.9121C9.88957 18.8931 9.64262 18.8647 9.39526 18.8266L9.39527 18.8265L9.38531 18.8252C9.238 18.8055 9.09348 18.7863 8.95872 18.7671C8.89624 18.756 8.83572 18.7477 8.78587 18.7409L8.78178 18.7404C8.72501 18.7326 8.68097 18.7265 8.63867 18.7188L8.63868 18.7188L8.63358 18.7179C7.54484 18.5316 6.47989 18.2773 5.42734 17.9264L5.42377 17.9253C4.76106 17.7099 4.27219 17.2359 4.05818 16.6573L4.05739 16.6552C3.84779 16.0963 3.91557 15.4244 4.27897 14.8064L5.40777 12.9284ZM11.9892 11.7608C12.6854 11.7608 13.2492 11.1969 13.2492 10.5008V7.40078C13.2492 6.70464 12.6854 6.14078 11.9892 6.14078C11.2931 6.14078 10.7292 6.70464 10.7292 7.40078V10.5008C10.7292 11.1969 11.2931 11.7608 11.9892 11.7608Z" fill="#5B52B6" stroke="#5B52B6"/>
<path d="M14.8297 20.51C14.4097 21.67 13.2997 22.5 11.9997 22.5C11.2097 22.5 10.4297 22.18 9.87969 21.61C9.55969 21.31 9.31969 20.91 9.17969 20.5C9.30969 20.52 9.43969 20.53 9.57969 20.55C9.80969 20.58 10.0497 20.61 10.2897 20.63C10.8597 20.68 11.4397 20.71 12.0197 20.71C12.5897 20.71 13.1597 20.68 13.7197 20.63C13.9297 20.61 14.1397 20.6 14.3397 20.57C14.4997 20.55 14.6597 20.53 14.8297 20.51Z" fill="#5B52B6"/>
</svg>
