<svg width="24" height="24" viewBox="0 0 24 24" fill="none" xmlns="http://www.w3.org/2000/svg">
<path d="M17.7988 15.8522L17.8 15.8506C19.5037 13.5827 19.5037 10.4179 17.8 8.14997L17.8 8.14996L17.7988 8.14834C17.7194 8.04345 17.7373 7.88588 17.8522 7.79882C17.9568 7.71957 18.1138 7.73719 18.201 7.85129C20.027 10.2935 20.0267 13.7086 18.2001 16.1505C18.1489 16.2187 18.0802 16.2503 18.0003 16.2503C17.9541 16.2503 17.9062 16.2385 17.8471 16.1978C17.7368 16.1099 17.7206 15.9555 17.7988 15.8522Z" fill="#5B52B6" stroke="#5B52B6"/>
<path d="M19.6289 18.3522L19.6304 18.3503C22.4337 14.6125 22.4337 9.38805 19.6304 5.65027L19.6304 5.65027L19.6289 5.64834C19.5494 5.54345 19.5674 5.38588 19.6823 5.29882C19.787 5.21951 19.9441 5.23721 20.0313 5.35154C22.967 9.26362 22.9667 14.7383 20.0305 18.6501L20.0255 18.6567L20.0207 18.6635C19.9872 18.7114 19.9211 18.7503 19.8304 18.7503C19.7842 18.7503 19.7362 18.7385 19.6772 18.6978C19.5668 18.6099 19.5506 18.4555 19.6289 18.3522Z" fill="#5B52B6" stroke="#5B52B6"/>
<path d="M7.34725 6.48847L7.3473 6.48855L7.35552 6.4834L10.2745 4.65405C10.2747 4.65394 10.2748 4.65382 10.275 4.65371C11.6407 3.80268 12.8696 3.71492 13.777 4.21668C14.6751 4.71881 15.25 5.80089 15.25 7.40972V16.5897C15.25 18.1989 14.6749 19.2811 13.7764 19.7831C13.4067 19.9883 12.9916 20.0897 12.55 20.0897C11.864 20.0897 11.0947 19.858 10.275 19.3457L7.35552 17.5161L7.35557 17.516L7.34725 17.511C7.07806 17.3495 6.76007 17.2497 6.43 17.2497H5.5H5C3.87908 17.2497 3.08544 16.9431 2.57105 16.4287C2.05667 15.9143 1.75 15.1206 1.75 13.9997V9.99972C1.75 8.8788 2.05667 8.08516 2.57105 7.57078C3.08544 7.05639 3.87908 6.74972 5 6.74972H5.5H6.43C6.76007 6.74972 7.07806 6.64998 7.34725 6.48847Z" fill="#5B52B6" stroke="#5B52B6"/>
</svg>
