<svg width="25" height="24" viewBox="0 0 25 24" fill="none" xmlns="http://www.w3.org/2000/svg">
<path d="M16.6391 2.95907L7.60914 5.95907C1.53914 7.98907 1.53914 11.2991 7.60914 13.3191L10.2891 14.2091L11.1791 16.8891C13.1991 22.9591 16.5191 22.9591 18.5391 16.8891L21.5491 7.86907C22.8891 3.81907 20.6891 1.60907 16.6391 2.95907ZM16.9591 8.33907L13.1591 12.1591C13.0091 12.3091 12.8191 12.3791 12.6291 12.3791C12.4391 12.3791 12.2491 12.3091 12.0991 12.1591C11.8091 11.8691 11.8091 11.3891 12.0991 11.0991L15.8991 7.27907C16.1891 6.98907 16.6691 6.98907 16.9591 7.27907C17.2491 7.56907 17.2491 8.04907 16.9591 8.33907Z" fill="white"/>
</svg>
