<svg width="25" height="24" viewBox="0 0 25 24" fill="none" xmlns="http://www.w3.org/2000/svg">
<path d="M16.4986 2H8.11859C4.47859 2 2.30859 4.17 2.30859 7.81V16.18C2.30859 19.83 4.47859 22 8.11859 22H16.4886C20.1286 22 22.2986 19.83 22.2986 16.19V7.81C22.3086 4.17 20.1386 2 16.4986 2ZM17.5586 12.33C17.5586 12.74 17.2186 13.08 16.8086 13.08C16.3986 13.08 16.0586 12.74 16.0586 12.33V9.31L8.33859 17.03C8.18859 17.18 7.99859 17.25 7.80859 17.25C7.61859 17.25 7.42859 17.18 7.27859 17.03C6.98859 16.74 6.98859 16.26 7.27859 15.97L14.9986 8.25H11.9786C11.5686 8.25 11.2286 7.91 11.2286 7.5C11.2286 7.09 11.5686 6.75 11.9786 6.75H16.8086C17.2186 6.75 17.5586 7.09 17.5586 7.5V12.33Z" fill="#5B52B6"/>
</svg>
