<svg width="24" height="24" viewBox="0 0 24 24" fill="none" xmlns="http://www.w3.org/2000/svg">
<path d="M3.83008 13.3204C3.83008 8.81653 7.49622 5.15039 12.0001 5.15039C16.5032 5.15039 20.1701 8.82578 20.1701 13.3304C20.1701 17.8342 16.5039 21.5004 12.0001 21.5004C7.49697 21.5004 3.83008 17.825 3.83008 13.3204ZM12.0001 14.2504C12.6862 14.2504 13.2501 13.6865 13.2501 13.0004V8.00039C13.2501 7.31425 12.6862 6.75039 12.0001 6.75039C11.3139 6.75039 10.7501 7.31425 10.7501 8.00039V13.0004C10.7501 13.6865 11.3139 14.2504 12.0001 14.2504Z" fill="#5B52B6" stroke="#5B52B6"/>
<path d="M14.8906 2.95H9.11062C8.98677 2.95 8.89062 2.85386 8.89062 2.73C8.89062 2.59712 8.9957 2.5 9.11062 2.5H14.8906C15.0145 2.5 15.1106 2.59614 15.1106 2.72C15.1106 2.85288 15.0055 2.95 14.8906 2.95Z" fill="#5B52B6" stroke="#5B52B6"/>
</svg>
