<svg width="24" height="25" viewBox="0 0 24 25" fill="none" xmlns="http://www.w3.org/2000/svg">
<path d="M19.97 9.25H17.03C15.76 9.25 15 8.49 15 7.22V4.28C15 3.01 15.76 2.25 17.03 2.25H19.97C21.24 2.25 22 3.01 22 4.28V7.22C22 8.49 21.24 9.25 19.97 9.25ZM20.19 5.94C20.07 5.82 19.91 5.76 19.75 5.76C19.59 5.76 19.43 5.82 19.31 5.94L19.13 6.12V3.88C19.13 3.53 18.85 3.25 18.5 3.25C18.15 3.25 17.87 3.53 17.87 3.88V6.12L17.69 5.94C17.45 5.7 17.05 5.7 16.81 5.94C16.57 6.18 16.57 6.58 16.81 6.82L18.06 8.07C18.11 8.12 18.18 8.16 18.25 8.19C18.27 8.2 18.29 8.2 18.31 8.21C18.36 8.23 18.41 8.24 18.47 8.24C18.49 8.24 18.51 8.24 18.53 8.24C18.6 8.24 18.66 8.23 18.73 8.2C18.74 8.2 18.74 8.2 18.75 8.2C18.82 8.17 18.88 8.13 18.93 8.08C18.94 8.07 18.94 8.07 18.95 8.07L20.2 6.82C20.44 6.58 20.44 6.18 20.19 5.94Z" fill="#12D5D5"/>
<path d="M2 11.96V16.96C2 19.25 3.85 21.1 6.14 21.1H17.85C20.14 21.1 22 19.24 22 16.95V11.96C22 11.29 21.46 10.75 20.79 10.75H3.21C2.54 10.75 2 11.29 2 11.96ZM8 17.75H6C5.59 17.75 5.25 17.41 5.25 17C5.25 16.59 5.59 16.25 6 16.25H8C8.41 16.25 8.75 16.59 8.75 17C8.75 17.41 8.41 17.75 8 17.75ZM14.5 17.75H10.5C10.09 17.75 9.75 17.41 9.75 17C9.75 16.59 10.09 16.25 10.5 16.25H14.5C14.91 16.25 15.25 16.59 15.25 17C15.25 17.41 14.91 17.75 14.5 17.75Z" fill="#12D5D5"/>
<path d="M13.5 5.11039V8.04039C13.5 8.71039 12.96 9.25039 12.29 9.25039H3.21C2.53 9.25039 2 8.69039 2 8.02039C2.01 6.89039 2.46 5.86039 3.21 5.11039C3.96 4.36039 5 3.90039 6.14 3.90039H12.29C12.96 3.90039 13.5 4.44039 13.5 5.11039Z" fill="#12D5D5"/>
</svg>
