<svg width="24" height="24" viewBox="0 0 24 24" fill="none" xmlns="http://www.w3.org/2000/svg">
<path d="M21.0202 5.72755L21.0223 5.72775C21.1623 5.74108 21.2681 5.86344 21.2614 6.00616C21.2446 6.13523 21.1333 6.23 21.0097 6.23H21.0095H21.0093H21.0091H21.009H21.0088H21.0086H21.0084H21.0083H21.0081H21.0079H21.0077H21.0076H21.0074H21.0072H21.0071H21.0069H21.0067H21.0065H21.0064H21.0062H21.006H21.0059H21.0057H21.0055H21.0053H21.0052H21.005H21.0048H21.0047H21.0045H21.0043H21.0042H21.004H21.0038H21.0037H21.0035H21.0033H21.0031H21.003H21.0028H21.0026H21.0025H21.0023H21.0021H21.002H21.0018H21.0016H21.0015H21.0013H21.0011H21.001H21.0008H21.0007H21.0005H21.0003H21.0002H21H20.9998H20.9997H20.9995H20.9993H20.9992H20.999H20.9988H20.9987H20.9985H20.9984H20.9982H20.998H20.9979H20.9977H20.9976H20.9974H20.9972H20.9971H20.9969H20.9967H20.9966H20.9964H20.9963H20.9961H20.9959H20.9958H20.9956H20.9955H20.9953H20.9951H20.995H20.9948H20.9947H20.9945H20.9944H20.9942H20.994H20.9939H20.9937H20.9936H20.9934H20.9932H20.9931H20.9929H20.9928H20.9926H20.9925H20.9923H20.9921H20.992H20.9918H20.9917H20.9915H20.9914H20.9912H20.9911H20.9909H20.9907H20.9906H20.9904H20.9903H20.9901H20.99H20.9898H20.9897H20.9895H20.9893H20.9892H20.989H20.9889H20.9887H20.9886H20.9884H20.9883H20.9881H20.988H20.9878H20.9877H20.9875H20.9874H20.9872H20.987H20.9869H20.9867H20.9866H20.9864H20.9863H20.9861H20.986H20.9858H20.9857H20.9855H20.9854H20.9852H20.9851H20.9849H20.9848H20.9846H20.9845H20.9843H20.9842H20.984H20.9839H20.9837H20.9836H20.9834H20.9833H20.9831H20.983H20.9828H20.9827H20.9825H20.9824H20.9822H20.9821H20.9819H20.9818H20.9816H20.9815H20.9813H20.9812H20.981H20.9809H20.9807H20.9806H20.9804H20.9803H20.9801H20.98H20.9798H20.9797H20.9795H20.9794H20.9792H20.9791H20.9789H20.9788H20.9786H20.9785H20.9783H20.9782H20.978H20.9779H20.9778H20.9776H20.9775H20.9773H20.9772H20.977H20.9769H20.9767H20.9766H20.9764H20.9763H20.9761H20.976H20.9758H20.9757H20.9755H20.9754H20.9752H20.9751H20.975H20.9748H20.9747H20.9745H20.9744H20.9742H20.9741H20.9739H20.9738H20.9736H20.9735H20.9733H20.9732H20.973H20.9729H20.9727H20.9726H20.9725H20.9723H20.9722H20.972H20.9719H20.9717H20.9716H20.9714H20.9713H20.9711H20.971H20.9708H20.9707H20.9705H20.9704H20.9703H20.9701H20.97H20.9698H20.9697H20.9695H20.9694H20.9692H20.9691H20.9689H20.9688H20.9686H20.9685H20.9684H20.9682H20.9681H20.9679H20.9678H20.9676H20.9675H20.9673H20.9672H20.967H20.9669H20.9667H20.9666H20.9664H20.9663H20.9662H20.966H20.9659H20.9657H20.9656H20.9654H20.9653H20.9651H20.965H20.9648H20.9647H20.9645H20.9644H20.9642H20.9641H20.9639H20.9638H20.9637H20.9635H20.9634H20.9632H20.9631H20.9629H20.9628H20.9626H20.9625H20.9623H20.9622H20.962H20.9619H20.9617H20.9616H20.9614H20.9613H20.9611H20.961H20.9608H20.9607H20.9606H20.9604H20.9603H20.9601H20.96H20.9598H20.9597H20.9595H20.9594H20.9592H20.9591H20.9589H20.9588H20.9586H20.9585H20.9583H20.9582H20.958H20.9579H20.9577H20.9576H20.9574H20.9573H20.9571H20.957H20.9568H20.9567H20.9565H20.9564H20.9562H20.9561H20.9559H20.9558H20.9556H20.9555H20.9553H20.9552H20.955H20.9549H20.9547H20.9546C15.6439 5.69996 10.3367 5.49886 5.06056 6.02242C5.06047 6.02243 5.06038 6.02243 5.06029 6.02244L3.02226 6.22225C3.02209 6.22227 3.02192 6.22228 3.02175 6.2223C2.87526 6.23599 2.76041 6.13572 2.74731 6.00145C2.73413 5.86639 2.83277 5.74149 2.97707 5.72775L2.97846 5.72761L5.01783 5.52768C5.01799 5.52766 5.01814 5.52765 5.01829 5.52763C5.93884 5.43856 6.8607 5.37904 7.79186 5.31896L8.18869 5.29336L8.25307 4.90095L8.463 3.62137C8.46302 3.62129 8.46303 3.6212 8.46305 3.62111C8.54635 3.11612 8.6293 2.67881 8.89914 2.34634C9.1413 2.04798 9.61203 1.75 10.6797 1.75H13.2997C14.3658 1.75 14.8399 2.05891 15.0848 2.36644C15.3574 2.70887 15.4381 3.1516 15.5162 3.63046L15.5162 3.63046L15.5167 3.63343L15.7297 4.89201V5.33299L16.2019 5.35923C17.8157 5.44888 19.4184 5.56836 21.0202 5.72755Z" fill="#5B52B6" stroke="#5B52B6"/>
<path d="M18.3197 8.25C18.5212 8.25 18.7195 8.33255 18.8654 8.48246C19.0041 8.63529 19.0824 8.84203 19.0706 9.06115C19.0706 9.06152 19.0705 9.06189 19.0705 9.06226L18.4508 19.307C18.3938 20.1001 18.329 20.8012 17.9435 21.3288C17.5893 21.8136 16.8695 22.26 15.2097 22.26H8.78975C7.1309 22.26 6.41083 21.8116 6.05622 21.3254C5.67036 20.7963 5.60571 20.0947 5.54866 19.3069L4.92894 9.05148C4.92892 9.05124 4.92891 9.051 4.92889 9.05076C4.91718 8.84219 4.99523 8.6334 5.13772 8.47853C5.26696 8.33804 5.47036 8.25 5.67975 8.25H18.3197ZM10.3297 18.25H13.6597C14.3459 18.25 14.9097 17.6861 14.9097 17C14.9097 16.3139 14.3459 15.75 13.6597 15.75H10.3297C9.64361 15.75 9.07975 16.3139 9.07975 17C9.07975 17.6861 9.64361 18.25 10.3297 18.25ZM9.49975 14.25H14.4997C15.1859 14.25 15.7497 13.6861 15.7497 13C15.7497 12.3139 15.1859 11.75 14.4997 11.75H9.49975C8.81361 11.75 8.24975 12.3139 8.24975 13C8.24975 13.6861 8.81361 14.25 9.49975 14.25Z" fill="#5B52B6" stroke="#5B52B6"/>
</svg>
