<svg width="24" height="24" viewBox="0 0 24 24" fill="none" xmlns="http://www.w3.org/2000/svg">
<path d="M18.9484 14.1923L18.9485 14.1923L18.9476 14.1825C18.933 14.0322 18.991 13.8866 19.0934 13.7842L19.0936 13.7843L19.1029 13.7745C19.1803 13.6928 19.2949 13.6406 19.4399 13.6406H20.9375C20.9437 13.6412 20.9477 13.6423 20.9499 13.6431V14.6399C20.949 14.6401 20.9478 14.6404 20.9461 14.6406H19.4999C19.1915 14.6406 18.9655 14.414 18.9484 14.1923Z" fill="#5B52B6" stroke="#5B52B6"/>
<path d="M16.9657 14.7979L16.9656 14.7979L16.9677 14.8052C17.2973 15.9844 18.4313 16.6906 19.5792 16.6906H20.4492C20.7231 16.6906 20.9492 16.9168 20.9492 17.1906V17.3806C20.9492 19.1745 19.4831 20.6406 17.6892 20.6406H6.20922C4.41536 20.6406 2.94922 19.1745 2.94922 17.3806V10.6506C2.94922 9.58415 3.46009 8.64031 4.24851 8.05115L4.24853 8.05117L4.25224 8.04834C4.79746 7.63294 5.47156 7.39062 6.20922 7.39062H17.6892C19.4831 7.39062 20.9492 8.85677 20.9492 10.6506V11.0906C20.9492 11.3645 20.7231 11.5906 20.4492 11.5906H19.4292C18.7373 11.5906 18.0995 11.8629 17.6351 12.3376C17.0158 12.9473 16.7184 13.858 16.9657 14.7979Z" fill="#5B52B6" stroke="#5B52B6"/>
<path d="M16.1991 4.82C16.4691 5.09 16.2391 5.51 15.8591 5.51L8.17908 5.5C7.73908 5.5 7.50908 4.96 7.82908 4.65L9.44908 3.02C10.8191 1.66 13.0391 1.66 14.4091 3.02L16.1591 4.79C16.1691 4.8 16.1891 4.81 16.1991 4.82Z" fill="#5B52B6"/>
</svg>
