<svg width="40" height="40" viewBox="0 0 40 40" fill="none" xmlns="http://www.w3.org/2000/svg">
<rect x="0.155405" y="0.155405" width="39.6892" height="39.6892" rx="19.8446" stroke="#83838A" stroke-width="0.310811"/>
<g clip-path="url(#clip0_3472_68744)">
<path d="M7.98599 19.7413C7.98541 21.8304 8.53128 23.8703 9.56924 25.6683L7.88672 31.8114L14.1735 30.163C15.9123 31.1096 17.8606 31.6056 19.8404 31.6058H19.8456C26.3813 31.6058 31.7015 26.2875 31.7043 19.7506C31.7055 16.5831 30.4731 13.6045 28.2339 11.3636C25.9951 9.12283 23.0176 7.88816 19.8451 7.88672C13.3086 7.88672 7.98878 13.2047 7.98608 19.7413" fill="url(#paint0_linear_3472_68744)"/>
<path d="M7.56211 19.7368C7.56143 21.9011 8.12687 24.0139 9.20184 25.8763L7.45898 32.2397L13.9712 30.5322C15.7655 31.5105 17.7857 32.0263 19.8414 32.0271H19.8467C26.6169 32.0271 32.1282 26.5175 32.1311 19.7466C32.1323 16.4652 30.8555 13.3796 28.5363 11.0584C26.2168 8.73748 23.1328 7.45838 19.8467 7.45703C13.0754 7.45703 7.5648 12.9659 7.56211 19.7368ZM11.4404 25.5556L11.1972 25.1696C10.175 23.5443 9.63553 21.6661 9.6363 19.7376C9.63842 14.1097 14.2186 9.53103 19.8506 9.53103C22.578 9.53219 25.1412 10.5954 27.0691 12.5245C28.9969 14.4537 30.0577 17.0182 30.057 19.7459C30.0545 25.3737 25.4743 29.953 19.8467 29.953H19.8427C18.0103 29.952 16.2132 29.4599 14.6459 28.53L14.2729 28.3088L10.4085 29.322L11.4404 25.5556Z" fill="url(#paint1_linear_3472_68744)"/>
<path d="M16.7772 14.6039C16.5472 14.0928 16.3052 14.0825 16.0866 14.0735C15.9075 14.0658 15.7028 14.0664 15.4983 14.0664C15.2936 14.0664 14.961 14.1434 14.6799 14.4504C14.3984 14.7576 13.6055 15.5001 13.6055 17.0102C13.6055 18.5203 14.7054 19.9798 14.8587 20.1848C15.0123 20.3894 16.9822 23.5875 20.102 24.8179C22.6949 25.8403 23.2226 25.637 23.7853 25.5857C24.3482 25.5346 25.6014 24.8434 25.8571 24.1267C26.113 23.41 26.113 22.7957 26.0363 22.6673C25.9595 22.5395 25.7548 22.4626 25.4479 22.3092C25.1409 22.1558 23.6318 21.4131 23.3505 21.3107C23.0691 21.2083 22.8645 21.1572 22.6597 21.4646C22.455 21.7714 21.8673 22.4626 21.6881 22.6673C21.5091 22.8725 21.33 22.8981 21.0231 22.7445C20.716 22.5905 19.7274 22.2668 18.5546 21.2212C17.6422 20.4076 17.0261 19.4029 16.8471 19.0956C16.668 18.7887 16.8279 18.6224 16.9818 18.4694C17.1197 18.3319 17.2888 18.111 17.4425 17.9318C17.5955 17.7526 17.6466 17.6247 17.7489 17.42C17.8514 17.2151 17.8001 17.0358 17.7235 16.8823C17.6466 16.7288 17.0501 15.2108 16.7772 14.6039Z" fill="white"/>
</g>
<defs>
<linearGradient id="paint0_linear_3472_68744" x1="1198.76" y1="2400.36" x2="1198.76" y2="7.88672" gradientUnits="userSpaceOnUse">
<stop stop-color="#1FAF38"/>
<stop offset="1" stop-color="#60D669"/>
</linearGradient>
<linearGradient id="paint1_linear_3472_68744" x1="1241.06" y1="2485.72" x2="1241.06" y2="7.45703" gradientUnits="userSpaceOnUse">
<stop stop-color="#F9F9F9"/>
<stop offset="1" stop-color="white"/>
</linearGradient>
<clipPath id="clip0_3472_68744">
<rect width="24.6721" height="24.8649" fill="white" transform="translate(7.45898 7.45898)"/>
</clipPath>
</defs>
</svg>
