<svg width="13" height="13" viewBox="0 0 13 13" fill="none" xmlns="http://www.w3.org/2000/svg">
<path d="M6.36284 1.09375C3.58118 1.09375 1.31445 3.36048 1.31445 6.14214C1.31445 8.9238 3.58118 11.1905 6.36284 11.1905C9.1445 11.1905 11.4112 8.9238 11.4112 6.14214C11.4112 3.36048 9.1445 1.09375 6.36284 1.09375ZM8.77597 4.98101L5.91353 7.84344C5.84286 7.91412 5.74694 7.95451 5.64597 7.95451C5.545 7.95451 5.44908 7.91412 5.3784 7.84344L3.94971 6.41475C3.80331 6.26835 3.80331 6.02602 3.94971 5.87962C4.09611 5.73322 4.33844 5.73322 4.48484 5.87962L5.64597 7.04075L8.24084 4.44588C8.38724 4.29948 8.62957 4.29948 8.77597 4.44588C8.92237 4.59228 8.92237 4.82956 8.77597 4.98101Z" fill="white"/>
</svg>
